<svg xmlns="http://www.w3.org/2000/svg" width="1440" height="900" viewBox="0 0 1440 900">
  <rect width="1440" height="900" fill="#C07640"/>
  <path d="M-80.73,-78.61Q-81.93,-85.51 -75.36,-83.09L-42.98,-71.19Q-36.41,-68.77 -41.79,-64.29L-68.29,-42.20Q-73.67,-37.72 -74.86,-44.62Z" fill="#D4975C" fill-opacity="0.77"/>
  <path d="M4.20,-42.19Q0.90,-36.01 -2.79,-41.96L-20.99,-71.27Q-24.69,-77.21 -17.69,-77.44L16.79,-78.55Q23.79,-78.77 20.48,-72.60Z" fill="#D09058" fill-opacity="0.77"/>
  <path d="M51.11,-82.10Q51.56,-89.08 57.39,-85.21L86.11,-66.11Q91.94,-62.24 85.67,-59.12L54.77,-43.79Q48.50,-40.68 48.94,-47.67Z" fill="#D69A5E" fill-opacity="0.58"/>
  <path d="M110.30,-50.58Q103.30,-50.81 107.00,-56.75L125.23,-86.04Q128.92,-91.98 132.22,-85.81L148.48,-55.38Q151.77,-49.21 144.78,-49.44Z" fill="#D4975C" fill-opacity="0.58"/>
  <path d="M197.86,-42.57Q195.04,-36.17 190.91,-41.81L170.51,-69.63Q166.37,-75.28 173.33,-76.04L207.62,-79.79Q214.58,-80.55 211.76,-74.15Z" fill="#D69A5E" fill-opacity="0.56"/>
  <path d="M266.25,-44.29Q264.85,-37.43 259.61,-42.08L233.81,-64.98Q228.57,-69.62 235.21,-71.83L267.94,-82.73Q274.58,-84.94 273.18,-78.09Z" fill="#D69A5E" fill-opacity="0.68"/>
  <path d="M300.27,-53.79Q293.41,-55.22 298.07,-60.44L321.03,-86.19Q325.69,-91.42 327.88,-84.77L338.70,-52.01Q340.90,-45.37 334.05,-46.79Z" fill="#D89E62" fill-opacity="0.79"/>
  <path d="M406.06,-66.60Q411.98,-62.86 405.78,-59.61L375.22,-43.59Q369.02,-40.34 369.31,-47.34L370.72,-81.81Q371.00,-88.80 376.92,-85.06Z" fill="#D09058" fill-opacity="0.76"/>
  <path d="M439.17,-43.62Q432.96,-40.38 433.26,-47.38L434.76,-81.84Q435.07,-88.83 440.97,-85.07L470.07,-66.54Q475.97,-62.78 469.77,-59.55Z" fill="#D09058" fill-opacity="0.61"/>
  <path d="M510.37,-86.16Q514.37,-91.90 517.35,-85.56L532.00,-54.33Q534.98,-48.00 528.00,-48.59L493.63,-51.51Q486.65,-52.10 490.65,-57.85Z" fill="#D4975C" fill-opacity="0.58"/>
  <path d="M596.01,-54.35Q598.99,-48.01 592.01,-48.60L557.64,-51.50Q550.66,-52.09 554.66,-57.83L574.35,-86.15Q578.35,-91.90 581.33,-85.57Z" fill="#D89E62" fill-opacity="0.73"/>
  <path d="M644.43,-85.77Q649.84,-90.22 650.98,-83.31L656.64,-49.28Q657.79,-42.37 651.23,-44.83L618.93,-56.95Q612.38,-59.41 617.79,-63.86Z" fill="#CC8C52" fill-opacity="0.71"/>
  <path d="M725.04,-71.14Q731.60,-68.71 726.21,-64.24L699.66,-42.21Q694.28,-37.74 693.10,-44.64L687.30,-78.65Q686.12,-85.55 692.69,-83.12Z" fill="#CC8C52" fill-opacity="0.57"/>
  <path d="M765.49,-41.93Q760.50,-37.02 758.75,-43.80L750.14,-77.21Q748.39,-83.99 755.13,-82.11L788.37,-72.87Q795.11,-70.99 790.12,-66.09Z" fill="#D69A5E" fill-opacity="0.82"/>
  <path d="M820.52,-44.98Q813.93,-42.61 815.17,-49.50L821.27,-83.45Q822.51,-90.34 827.86,-85.83L854.21,-63.56Q859.56,-59.05 852.97,-56.67Z" fill="#D09058" fill-opacity="0.76"/>
  <path d="M918.03,-61.13Q922.85,-56.05 916.04,-54.41L882.50,-46.36Q875.69,-44.72 877.68,-51.44L887.47,-84.51Q889.46,-91.23 894.28,-86.15Z" fill="#D09058" fill-opacity="0.78"/>
  <path d="M981.52,-69.52Q987.88,-66.60 982.17,-62.55L954.02,-42.60Q948.31,-38.56 947.66,-45.53L944.46,-79.88Q943.81,-86.85 950.17,-83.92Z" fill="#D09058" fill-opacity="0.81"/>
  <path d="M1010.39,-46.44Q1003.57,-44.85 1005.60,-51.55L1015.60,-84.57Q1017.63,-91.27 1022.42,-86.16L1046.01,-60.99Q1050.80,-55.89 1043.98,-54.29Z" fill="#CC8C52" fill-opacity="0.74"/>
  <path d="M1076.14,-45.22Q1069.51,-42.98 1070.88,-49.84L1077.66,-83.66Q1079.04,-90.53 1084.30,-85.90L1110.20,-63.12Q1115.45,-58.49 1108.82,-56.25Z" fill="#D89E62" fill-opacity="0.66"/>
  <path d="M1138.38,-81.55Q1138.54,-88.55 1144.52,-84.92L1174.01,-67.02Q1179.99,-63.38 1173.86,-60.02L1143.61,-43.43Q1137.47,-40.07 1137.62,-47.06Z" fill="#D4975C" fill-opacity="0.73"/>
  <path d="M1229.51,-46.36Q1229.31,-39.37 1223.35,-43.04L1193.97,-61.12Q1188.01,-64.79 1194.17,-68.11L1224.52,-84.52Q1230.68,-87.85 1230.48,-80.85Z" fill="#D09058" fill-opacity="0.60"/>
  <path d="M1266.46,-46.38Q1259.65,-44.76 1261.65,-51.47L1271.51,-84.53Q1273.51,-91.24 1278.32,-86.15L1302.02,-61.09Q1306.83,-56.00 1300.02,-54.38Z" fill="#D69A5E" fill-opacity="0.62"/>
  <path d="M1337.25,-42.83Q1331.40,-38.99 1331.00,-45.98L1329.04,-80.43Q1328.64,-87.41 1334.90,-84.26L1365.70,-68.74Q1371.95,-65.59 1366.10,-61.75Z" fill="#D4975C" fill-opacity="0.62"/>
  <path d="M1430.19,-63.03Q1435.43,-58.39 1428.79,-56.18L1396.07,-45.26Q1389.43,-43.05 1390.83,-49.91L1397.74,-83.70Q1399.14,-90.56 1404.38,-85.92Z" fill="#D89E62" fill-opacity="0.67"/>
  <path d="M1493.48,-58.34Q1497.61,-52.69 1490.65,-51.94L1456.36,-48.23Q1449.40,-47.47 1452.22,-53.88L1466.16,-85.43Q1468.99,-91.84 1473.12,-86.19Z" fill="#D69A5E" fill-opacity="0.81"/>
  <path d="M-37.46,21.53Q-43.07,25.72 -43.89,18.77L-47.92,-15.49Q-48.74,-22.45 -42.31,-19.68L-10.62,-6.04Q-4.19,-3.27 -9.80,0.91Z" fill="#CC8C52" fill-opacity="0.67"/>
  <path d="M49.06,-14.23Q56.06,-14.32 52.64,-8.21L35.79,21.89Q32.37,28.00 28.79,21.98L11.15,-7.66Q7.57,-13.68 14.57,-13.77Z" fill="#CC8C52" fill-opacity="0.59"/>
  <path d="M112.71,14.63Q113.90,21.53 107.33,19.11L74.97,7.16Q68.40,4.73 73.79,0.26L100.32,-21.79Q105.70,-26.27 106.88,-19.37Z" fill="#D69A5E" fill-opacity="0.71"/>
  <path d="M156.09,-21.87Q159.47,-28.00 163.09,-22.00L180.89,7.55Q184.51,13.54 177.51,13.67L143.02,14.32Q136.02,14.45 139.40,8.33Z" fill="#CC8C52" fill-opacity="0.82"/>
  <path d="M208.37,15.79Q201.41,16.54 204.23,10.14L218.15,-21.43Q220.97,-27.84 225.10,-22.19L245.49,5.64Q249.62,11.29 242.66,12.05Z" fill="#D09058" fill-opacity="0.85"/>
  <path d="M304.83,14.50Q306.07,21.39 299.49,19.02L267.03,7.33Q260.44,4.96 265.79,0.44L292.14,-21.83Q297.48,-26.34 298.72,-19.46Z" fill="#CC8C52" fill-opacity="0.58"/>
  <path d="M374.00,3.05Q378.78,8.17 371.96,9.75L338.35,17.53Q331.53,19.11 333.58,12.41L343.64,-20.58Q345.68,-27.28 350.46,-22.16Z" fill="#D4975C" fill-opacity="0.60"/>
  <path d="M430.71,16.65Q431.01,23.64 424.80,20.40L394.23,4.42Q388.02,1.18 393.93,-2.58L423.06,-21.06Q428.97,-24.82 429.26,-17.82Z" fill="#CC8C52" fill-opacity="0.73"/>
  <path d="M465.88,17.15Q459.02,18.55 461.25,11.91L472.20,-20.80Q474.43,-27.44 479.06,-22.20L501.91,3.65Q506.55,8.89 499.69,10.29Z" fill="#D69A5E" fill-opacity="0.85"/>
  <path d="M521.79,-0.55Q516.47,-5.09 523.06,-7.43L555.58,-18.96Q562.18,-21.30 560.90,-14.41L554.63,19.51Q553.36,26.39 548.03,21.85Z" fill="#D69A5E" fill-opacity="0.81"/>
  <path d="M630.13,-1.91Q635.93,2.02 629.63,5.07L598.59,20.12Q592.29,23.18 592.79,16.19L595.28,-18.21Q595.78,-25.19 601.58,-21.27Z" fill="#D4975C" fill-opacity="0.75"/>
  <path d="M649.85,-1.64Q644.75,-6.45 651.46,-8.46L684.50,-18.36Q691.21,-20.37 689.59,-13.56L681.65,20.01Q680.04,26.82 674.95,22.02Z" fill="#D89E62" fill-opacity="0.78"/>
  <path d="M727.18,20.39Q720.97,23.62 721.27,16.63L722.75,-17.83Q723.06,-24.83 728.96,-21.07L758.07,-2.55Q763.97,1.20 757.77,4.44Z" fill="#D89E62" fill-opacity="0.68"/>
  <path d="M779.99,9.64Q773.18,8.03 777.98,2.94L801.66,-22.15Q806.46,-27.24 808.47,-20.54L818.36,12.51Q820.36,19.22 813.55,17.60Z" fill="#D89E62" fill-opacity="0.84"/>
  <path d="M862.16,-22.14Q866.10,-27.92 869.14,-21.61L884.09,9.47Q887.13,15.78 880.15,15.26L845.75,12.67Q838.77,12.14 842.71,6.36Z" fill="#D69A5E" fill-opacity="0.82"/>
  <path d="M940.53,-18.35Q947.23,-20.35 945.61,-13.54L937.63,20.02Q936.01,26.83 930.92,22.02L905.85,-1.67Q900.76,-6.48 907.47,-8.48Z" fill="#D89E62" fill-opacity="0.80"/>
  <path d="M969.92,2.44Q964.03,-1.35 970.26,-4.55L1000.93,-20.34Q1007.15,-23.55 1006.81,-16.55L1005.15,17.90Q1004.82,24.89 998.93,21.11Z" fill="#D09058" fill-opacity="0.60"/>
  <path d="M1054.23,-22.14Q1058.20,-27.91 1061.21,-21.60L1076.06,9.54Q1079.07,15.86 1072.10,15.31L1037.71,12.60Q1030.73,12.05 1034.69,6.28Z" fill="#D69A5E" fill-opacity="0.84"/>
  <path d="M1137.74,-13.37Q1144.74,-13.11 1141.02,-7.18L1122.70,22.05Q1118.99,27.98 1115.71,21.80L1099.55,-8.68Q1096.27,-14.87 1103.27,-14.62Z" fill="#D4975C" fill-opacity="0.73"/>
  <path d="M1162.37,5.06Q1156.07,2.00 1161.87,-1.92L1190.43,-21.26Q1196.23,-25.19 1196.73,-18.21L1199.20,16.20Q1199.70,23.19 1193.40,20.13Z" fill="#D4975C" fill-opacity="0.83"/>
  <path d="M1261.45,-17.68Q1268.26,-19.33 1266.29,-12.61L1256.58,20.49Q1254.61,27.21 1249.78,22.14L1225.96,-2.81Q1221.13,-7.88 1227.93,-9.53Z" fill="#D89E62" fill-opacity="0.62"/>
  <path d="M1316.75,21.70Q1313.61,27.95 1309.76,22.10L1290.83,-6.74Q1286.99,-12.59 1293.98,-12.99L1328.42,-14.97Q1335.41,-15.37 1332.26,-9.11Z" fill="#D69A5E" fill-opacity="0.83"/>
  <path d="M1396.63,8.24Q1400.04,14.35 1393.04,14.25L1358.55,13.75Q1351.55,13.65 1355.14,7.63L1372.82,-21.99Q1376.41,-28.00 1379.82,-21.88Z" fill="#CC8C52" fill-opacity="0.79"/>
  <path d="M1461.25,-6.49Q1467.73,-3.86 1462.21,0.44L1435.00,21.65Q1429.48,25.95 1428.51,19.01L1423.76,-15.15Q1422.79,-22.09 1429.28,-19.46Z" fill="#D69A5E" fill-opacity="0.78"/>
  <path d="M-46.29,77.42Q-44.63,84.22 -51.35,82.26L-84.47,72.62Q-91.19,70.67 -86.14,65.83L-61.23,41.96Q-56.18,37.11 -54.51,43.91Z" fill="#CC8C52" fill-opacity="0.83"/>
  <path d="M14.17,81.11Q14.23,88.11 8.14,84.67L-21.90,67.71Q-28.00,64.27 -21.97,60.71L7.74,43.18Q13.76,39.62 13.83,46.62Z" fill="#D69A5E" fill-opacity="0.81"/>
  <path d="M46.20,77.29Q39.20,77.00 42.95,71.09L61.39,41.94Q65.14,36.02 68.39,42.22L84.41,72.77Q87.66,78.97 80.67,78.69Z" fill="#D09058" fill-opacity="0.83"/>
  <path d="M125.23,41.96Q128.93,36.02 132.22,42.19L148.47,72.62Q151.77,78.79 144.78,78.56L110.30,77.42Q103.30,77.19 107.00,71.25Z" fill="#D09058" fill-opacity="0.76"/>
  <path d="M176.41,79.83Q169.45,80.60 172.26,74.19L186.09,42.59Q188.90,36.17 193.05,41.81L213.50,69.59Q217.65,75.23 210.69,76.00Z" fill="#D89E62" fill-opacity="0.68"/>
  <path d="M233.81,65.06Q228.17,60.91 234.58,58.10L266.18,44.25Q272.59,41.44 271.82,48.40L268.01,82.69Q267.24,89.64 261.60,85.50Z" fill="#D4975C" fill-opacity="0.62"/>
  <path d="M341.56,69.37Q345.76,74.96 338.82,75.81L304.57,79.98Q297.62,80.83 300.36,74.39L313.87,42.65Q316.61,36.21 320.82,41.80Z" fill="#D4975C" fill-opacity="0.73"/>
  <path d="M390.21,85.33Q387.49,91.78 383.26,86.20L362.42,58.71Q358.20,53.13 365.14,52.26L399.37,47.96Q406.32,47.09 403.60,53.54Z" fill="#D09058" fill-opacity="0.55"/>
  <path d="M438.88,43.74Q440.67,36.98 445.63,41.91L470.10,66.23Q475.07,71.16 468.31,73.00L435.02,82.03Q428.26,83.86 430.05,77.09Z" fill="#D4975C" fill-opacity="0.62"/>
  <path d="M528.22,48.82Q535.20,48.32 532.14,54.62L517.04,85.64Q513.98,91.93 510.06,86.13L490.74,57.55Q486.82,51.75 493.81,51.25Z" fill="#D89E62" fill-opacity="0.57"/>
  <path d="M581.14,85.61Q578.11,91.92 574.16,86.14L554.71,57.65Q550.77,51.87 557.75,51.34L592.15,48.74Q599.13,48.21 596.09,54.52Z" fill="#CC8C52" fill-opacity="0.61"/>
  <path d="M657.37,77.85Q658.87,84.69 652.20,82.57L619.32,72.12Q612.65,70.00 617.82,65.28L643.31,42.03Q648.48,37.32 649.98,44.15Z" fill="#D69A5E" fill-opacity="0.72"/>
  <path d="M708.46,85.76Q705.23,91.97 701.47,86.07L682.92,56.98Q679.16,51.08 686.15,50.77L720.62,49.25Q727.61,48.95 724.38,55.16Z" fill="#CC8C52" fill-opacity="0.79"/>
  <path d="M779.28,83.14Q778.24,90.06 772.77,85.70L745.79,64.20Q740.31,59.84 746.83,57.28L778.93,44.66Q785.45,42.10 784.41,49.02Z" fill="#D4975C" fill-opacity="0.75"/>
  <path d="M821.41,83.53Q814.94,86.20 815.86,79.26L820.39,45.06Q821.31,38.12 826.86,42.39L854.21,63.41Q859.76,67.68 853.29,70.35Z" fill="#CC8C52" fill-opacity="0.69"/>
  <path d="M889.65,42.71Q892.33,36.24 896.59,41.79L917.61,69.15Q921.87,74.70 914.94,75.62L880.74,80.14Q873.80,81.06 876.47,74.59Z" fill="#D4975C" fill-opacity="0.57"/>
  <path d="M953.54,42.75Q956.18,36.26 960.47,41.79L981.64,69.03Q985.93,74.56 979.00,75.52L944.82,80.22Q937.89,81.18 940.53,74.69Z" fill="#D4975C" fill-opacity="0.62"/>
  <path d="M1035.30,83.12Q1034.27,90.05 1028.79,85.69L1001.79,64.23Q996.31,59.87 1002.82,57.30L1034.91,44.65Q1041.42,42.08 1040.39,49.00Z" fill="#CC8C52" fill-opacity="0.59"/>
  <path d="M1100.10,82.63Q1099.36,89.59 1093.70,85.47L1065.82,65.17Q1060.16,61.05 1066.55,58.21L1098.08,44.20Q1104.48,41.36 1103.74,48.32Z" fill="#CC8C52" fill-opacity="0.62"/>
  <path d="M1169.81,50.73Q1176.81,51.02 1173.06,56.93L1154.59,86.06Q1150.84,91.98 1147.59,85.77L1131.60,55.21Q1128.35,49.01 1135.35,49.30Z" fill="#CC8C52" fill-opacity="0.79"/>
  <path d="M1226.80,44.59Q1233.30,41.98 1232.30,48.91L1227.41,83.06Q1226.42,89.99 1220.92,85.66L1193.79,64.36Q1188.28,60.03 1194.78,57.43Z" fill="#D4975C" fill-opacity="0.57"/>
  <path d="M1301.92,60.40Q1308.00,63.87 1301.95,67.40L1272.16,84.78Q1266.11,88.31 1266.08,81.31L1265.92,46.81Q1265.89,39.81 1271.97,43.29Z" fill="#D4975C" fill-opacity="0.84"/>
  <path d="M1362.07,51.08Q1369.06,51.50 1365.19,57.34L1346.16,86.11Q1342.29,91.95 1339.17,85.68L1323.77,54.81Q1320.65,48.55 1327.64,48.98Z" fill="#D09058" fill-opacity="0.60"/>
  <path d="M1386.47,69.46Q1380.11,66.52 1385.84,62.49L1414.04,42.62Q1419.76,38.59 1420.39,45.56L1423.50,79.92Q1424.13,86.89 1417.77,83.95Z" fill="#D09058" fill-opacity="0.81"/>
  <path d="M1487.93,48.52Q1494.90,47.89 1491.96,54.24L1477.44,85.54Q1474.50,91.89 1470.47,86.16L1450.63,57.95Q1446.60,52.22 1453.57,51.60Z" fill="#D09058" fill-opacity="0.66"/>
  <path d="M-10.48,122.49Q-4.12,125.42 -9.83,129.46L-37.99,149.39Q-43.71,153.44 -44.35,146.47L-47.53,112.12Q-48.18,105.14 -41.82,108.07Z" fill="#D89E62" fill-opacity="0.83"/>
  <path d="M33.39,105.83Q38.13,100.68 40.22,107.36L50.51,140.29Q52.60,146.97 45.77,145.44L12.10,137.88Q5.27,136.35 10.02,131.20Z" fill="#D89E62" fill-opacity="0.68"/>
  <path d="M116.23,118.81Q123.00,120.58 118.08,125.56L93.84,150.11Q88.93,155.09 87.07,148.34L77.93,115.08Q76.08,108.33 82.85,110.10Z" fill="#D69A5E" fill-opacity="0.75"/>
  <path d="M138.43,133.32Q132.10,130.34 137.85,126.35L166.17,106.66Q171.92,102.67 172.51,109.64L175.39,144.02Q175.98,150.99 169.65,148.01Z" fill="#D09058" fill-opacity="0.64"/>
  <path d="M244.83,120.28Q251.46,122.53 246.20,127.15L220.27,149.90Q215.01,154.52 213.64,147.65L206.90,113.82Q205.53,106.95 212.16,109.20Z" fill="#D69A5E" fill-opacity="0.77"/>
  <path d="M309.66,132.95Q313.97,138.46 307.04,139.44L272.88,144.28Q265.95,145.26 268.57,138.77L281.46,106.77Q284.08,100.28 288.39,105.79Z" fill="#D89E62" fill-opacity="0.57"/>
  <path d="M331.29,119.95Q327.83,113.87 334.83,113.91L369.32,114.09Q376.32,114.13 372.79,120.17L355.38,149.96Q351.85,156.00 348.38,149.92Z" fill="#D69A5E" fill-opacity="0.83"/>
  <path d="M393.80,127.17Q388.53,122.56 395.16,120.30L427.82,109.19Q434.45,106.93 433.09,113.80L426.38,147.64Q425.02,154.51 419.75,149.90Z" fill="#D4975C" fill-opacity="0.84"/>
  <path d="M500.91,135.52Q504.53,141.51 497.53,141.65L463.04,142.35Q456.04,142.49 459.42,136.36L476.06,106.14Q479.43,100.01 483.06,106.00Z" fill="#D09058" fill-opacity="0.57"/>
  <path d="M565.42,133.90Q569.49,139.60 562.52,140.27L528.18,143.60Q521.21,144.27 524.11,137.90L538.40,106.50Q541.30,100.13 545.37,105.83Z" fill="#D09058" fill-opacity="0.67"/>
  <path d="M627.22,116.86Q634.14,117.95 629.73,123.40L608.03,150.22Q603.63,155.66 601.12,149.12L588.74,116.92Q586.23,110.39 593.15,111.48Z" fill="#D69A5E" fill-opacity="0.62"/>
  <path d="M651.86,118.62Q648.79,112.33 655.78,112.82L690.19,115.25Q697.17,115.74 693.25,121.54L673.95,150.13Q670.03,155.93 666.97,149.64Z" fill="#D69A5E" fill-opacity="0.57"/>
  <path d="M721.02,111.60Q720.61,104.61 726.86,107.75L757.70,123.23Q763.95,126.37 758.10,130.21L729.29,149.18Q723.44,153.02 723.03,146.04Z" fill="#D69A5E" fill-opacity="0.71"/>
  <path d="M818.72,116.04Q825.68,116.83 821.51,122.46L801.00,150.19Q796.83,155.82 794.04,149.40L780.28,117.77Q777.49,111.35 784.45,112.14Z" fill="#D09058" fill-opacity="0.75"/>
  <path d="M858.61,149.55Q853.01,153.75 852.17,146.80L848.03,112.56Q847.19,105.61 853.63,108.35L885.36,121.89Q891.80,124.64 886.20,128.84Z" fill="#D89E62" fill-opacity="0.67"/>
  <path d="M914.55,110.32Q914.77,103.32 920.72,107.01L950.04,125.19Q955.99,128.88 949.82,132.19L919.41,148.49Q913.24,151.79 913.46,144.80Z" fill="#D89E62" fill-opacity="0.69"/>
  <path d="M1010.28,115.38Q1017.26,115.92 1013.30,121.69L993.79,150.14Q989.83,155.92 986.81,149.60L971.93,118.48Q968.91,112.16 975.89,112.70Z" fill="#D4975C" fill-opacity="0.55"/>
  <path d="M1037.70,115.40Q1035.73,108.68 1042.53,110.33L1076.06,118.45Q1082.86,120.10 1078.03,125.17L1054.24,150.15Q1049.41,155.21 1047.43,148.50Z" fill="#D69A5E" fill-opacity="0.85"/>
  <path d="M1141.21,134.61Q1145.09,140.44 1138.10,140.88L1103.67,143.06Q1096.69,143.51 1099.79,137.23L1115.12,106.33Q1118.23,100.06 1122.11,105.88Z" fill="#D09058" fill-opacity="0.70"/>
  <path d="M1201.36,141.87Q1202.85,148.70 1196.18,146.58L1163.31,136.10Q1156.64,133.97 1161.82,129.26L1187.33,106.04Q1192.51,101.32 1194.00,108.16Z" fill="#D89E62" fill-opacity="0.81"/>
  <path d="M1261.52,110.37Q1268.32,108.74 1266.33,115.45L1256.51,148.52Q1254.52,155.23 1249.70,150.15L1225.97,125.11Q1221.16,120.03 1227.97,118.40Z" fill="#D89E62" fill-opacity="0.64"/>
  <path d="M1293.02,139.55Q1286.09,138.60 1290.37,133.07L1311.49,105.79Q1315.77,100.26 1318.43,106.73L1331.49,138.66Q1334.14,145.14 1327.20,144.20Z" fill="#D69A5E" fill-opacity="0.76"/>
  <path d="M1356.99,116.51Q1354.61,109.93 1361.50,111.17L1395.46,117.28Q1402.35,118.52 1397.83,123.86L1375.56,150.21Q1371.04,155.56 1368.67,148.97Z" fill="#D69A5E" fill-opacity="0.55"/>
  <path d="M1445.78,106.55Q1451.46,102.45 1452.17,109.42L1455.68,143.73Q1456.40,150.70 1450.01,147.83L1418.53,133.71Q1412.15,130.85 1417.82,126.75Z" fill="#D89E62" fill-opacity="0.83"/>
  <path d="M-44.43,202.51Q-41.72,208.96 -48.67,208.08L-82.89,203.70Q-89.83,202.81 -85.59,197.24L-64.69,169.80Q-60.45,164.23 -57.74,170.68Z" fill="#D09058" fill-opacity="0.63"/>
  <path d="M14.64,175.29Q21.54,174.11 19.11,180.68L7.15,213.03Q4.72,219.60 0.25,214.21L-21.79,187.67Q-26.26,182.29 -19.36,181.11Z" fill="#D69A5E" fill-opacity="0.60"/>
  <path d="M63.08,214.20Q58.45,219.44 56.22,212.81L45.24,180.11Q43.01,173.47 49.87,174.86L83.68,181.70Q90.54,183.08 85.91,188.33Z" fill="#D09058" fill-opacity="0.77"/>
  <path d="M137.66,212.01Q136.05,218.82 130.95,214.02L105.85,190.36Q100.75,185.56 107.46,183.55L140.50,173.63Q147.20,171.62 145.59,178.43Z" fill="#D89E62" fill-opacity="0.70"/>
  <path d="M195.35,213.96Q191.80,220.00 188.35,213.91L171.31,183.92Q167.85,177.83 174.85,177.88L209.35,178.12Q216.35,178.17 212.80,184.21Z" fill="#D4975C" fill-opacity="0.58"/>
  <path d="M238.16,205.24Q231.17,204.93 234.93,199.03L253.46,169.93Q257.22,164.03 260.45,170.23L276.38,200.83Q279.62,207.04 272.62,206.74Z" fill="#D89E62" fill-opacity="0.56"/>
  <path d="M312.03,212.74Q305.97,216.23 305.98,209.23L306.02,174.73Q306.03,167.73 312.09,171.24L341.94,188.53Q348.00,192.04 341.93,195.53Z" fill="#D09058" fill-opacity="0.74"/>
  <path d="M385.84,214.14Q381.90,219.92 378.86,213.61L363.91,182.53Q360.87,176.22 367.85,176.75L402.25,179.33Q409.23,179.86 405.29,185.64Z" fill="#CC8C52" fill-opacity="0.72"/>
  <path d="M429.82,204.77Q422.84,204.29 426.75,198.48L446.03,169.87Q449.94,164.07 453.01,170.36L468.15,201.35Q471.22,207.64 464.24,207.16Z" fill="#D4975C" fill-opacity="0.58"/>
  <path d="M531.46,181.28Q538.35,182.52 533.83,187.87L511.55,214.21Q507.03,219.56 504.66,212.97L492.99,180.51Q490.62,173.92 497.51,175.16Z" fill="#D09058" fill-opacity="0.71"/>
  <path d="M584.10,171.31Q590.19,167.86 590.14,174.86L589.86,209.36Q589.81,216.36 583.77,212.81L554.04,195.33Q548.00,191.78 554.09,188.33Z" fill="#D69A5E" fill-opacity="0.72"/>
  <path d="M621.66,204.53Q614.68,203.96 618.67,198.20L638.32,169.85Q642.31,164.10 645.29,170.42L660.02,201.62Q663.01,207.95 656.04,207.37Z" fill="#D4975C" fill-opacity="0.64"/>
  <path d="M719.59,176.17Q726.55,175.40 723.74,181.81L709.91,213.41Q707.10,219.83 702.95,214.19L682.50,186.41Q678.35,180.78 685.31,180.00Z" fill="#D4975C" fill-opacity="0.82"/>
  <path d="M776.84,212.38Q774.95,219.12 770.06,214.12L745.93,189.46Q741.04,184.46 747.82,182.72L781.23,174.16Q788.01,172.42 786.13,179.16Z" fill="#D09058" fill-opacity="0.75"/>
  <path d="M821.48,211.57Q815.02,214.27 815.92,207.32L820.31,173.11Q821.21,166.16 826.77,170.41L854.21,191.33Q859.77,195.57 853.31,198.27Z" fill="#D69A5E" fill-opacity="0.82"/>
  <path d="M879.69,207.09Q872.71,207.54 875.81,201.26L891.09,170.33Q894.19,164.06 898.08,169.88L917.22,198.58Q921.10,204.40 914.12,204.86Z" fill="#D69A5E" fill-opacity="0.77"/>
  <path d="M978.02,179.01Q985.01,179.41 981.17,185.26L962.24,214.10Q958.40,219.95 955.25,213.70L939.74,182.89Q936.59,176.64 943.58,177.04Z" fill="#D09058" fill-opacity="0.81"/>
  <path d="M1045.17,185.27Q1051.69,187.83 1046.21,192.19L1019.24,213.70Q1013.77,218.06 1012.73,211.14L1007.59,177.03Q1006.54,170.11 1013.06,172.67Z" fill="#D09058" fill-opacity="0.81"/>
  <path d="M1110.22,191.95Q1115.66,196.34 1109.13,198.86L1076.94,211.27Q1070.41,213.78 1071.49,206.87L1076.84,172.79Q1077.93,165.87 1083.38,170.27Z" fill="#D89E62" fill-opacity="0.78"/>
  <path d="M1135.20,206.53Q1128.20,206.75 1131.51,200.58L1147.82,170.18Q1151.13,164.01 1154.82,169.96L1172.99,199.29Q1176.67,205.24 1169.68,205.46Z" fill="#D09058" fill-opacity="0.63"/>
  <path d="M1217.70,169.85Q1222.52,164.77 1224.51,171.48L1234.33,204.55Q1236.33,211.26 1229.52,209.63L1195.97,201.60Q1189.16,199.97 1193.97,194.89Z" fill="#D4975C" fill-opacity="0.66"/>
  <path d="M1302.13,193.89Q1307.18,198.75 1300.45,200.68L1267.30,210.23Q1260.57,212.16 1262.26,205.37L1270.57,171.89Q1272.25,165.09 1277.29,169.95Z" fill="#CC8C52" fill-opacity="0.62"/>
  <path d="M1349.71,170.53Q1355.38,166.42 1356.11,173.38L1359.73,207.68Q1360.47,214.64 1354.07,211.80L1322.55,197.78Q1316.15,194.94 1321.82,190.82Z" fill="#CC8C52" fill-opacity="0.65"/>
  <path d="M1414.25,170.68Q1420.01,166.71 1420.57,173.68L1423.34,208.07Q1423.90,215.05 1417.58,212.04L1386.41,197.25Q1380.09,194.25 1385.85,190.27Z" fill="#D09058" fill-opacity="0.62"/>
  <path d="M1457.29,175.35Q1457.00,168.36 1463.20,171.60L1493.77,187.59Q1499.98,190.83 1494.06,194.58L1464.93,213.06Q1459.02,216.81 1458.73,209.82Z" fill="#CC8C52" fill-opacity="0.65"/>
  <path d="M-20.19,237.18Q-13.57,234.92 -14.92,241.79L-21.61,275.63Q-22.96,282.50 -28.23,277.89L-54.20,255.19Q-59.47,250.58 -52.84,248.32Z" fill="#D89E62" fill-opacity="0.66"/>
  <path d="M9.89,258.20Q4.05,254.35 10.31,251.21L41.15,235.76Q47.41,232.62 46.99,239.61L44.96,274.05Q44.54,281.03 38.70,277.18Z" fill="#D69A5E" fill-opacity="0.65"/>
  <path d="M118.21,256.34Q123.58,260.83 117.00,263.23L84.60,275.07Q78.03,277.47 79.23,270.57L85.19,236.59Q86.39,229.70 91.76,234.19Z" fill="#D89E62" fill-opacity="0.60"/>
  <path d="M180.52,247.48Q187.23,249.47 182.15,254.29L157.12,278.03Q152.04,282.85 150.41,276.04L142.36,242.49Q140.73,235.69 147.44,237.67Z" fill="#D89E62" fill-opacity="0.56"/>
  <path d="M203.98,246.37Q201.00,240.03 207.97,240.62L242.35,243.48Q249.33,244.06 245.34,249.81L225.67,278.15Q221.67,283.90 218.69,277.57Z" fill="#D89E62" fill-opacity="0.77"/>
  <path d="M282.68,277.57Q277.09,281.79 276.23,274.84L271.98,240.61Q271.12,233.66 277.57,236.39L309.34,249.82Q315.79,252.55 310.20,256.77Z" fill="#D69A5E" fill-opacity="0.85"/>
  <path d="M370.72,267.96Q372.93,274.60 366.07,273.19L332.28,266.23Q325.43,264.82 330.08,259.59L353.00,233.81Q357.65,228.58 359.85,235.22Z" fill="#D69A5E" fill-opacity="0.61"/>
  <path d="M438.05,258.67Q442.92,263.71 436.13,265.40L402.66,273.76Q395.87,275.46 397.79,268.73L407.29,235.56Q409.22,228.83 414.08,233.87Z" fill="#CC8C52" fill-opacity="0.55"/>
  <path d="M498.00,242.99Q504.99,243.38 501.16,249.24L482.27,278.10Q478.43,283.96 475.28,277.71L459.73,246.91Q456.57,240.67 463.56,241.06Z" fill="#D69A5E" fill-opacity="0.76"/>
  <path d="M563.13,244.70Q570.05,245.74 565.69,251.21L544.22,278.21Q539.86,283.69 537.30,277.18L524.65,245.08Q522.09,238.57 529.01,239.61Z" fill="#D09058" fill-opacity="0.66"/>
  <path d="M629.34,262.17Q633.34,267.92 626.36,268.50L591.99,271.40Q585.01,271.98 587.99,265.65L602.67,234.43Q605.65,228.10 609.65,233.85Z" fill="#D89E62" fill-opacity="0.74"/>
  <path d="M657.65,239.04Q657.50,232.04 663.64,235.42L693.86,252.05Q699.99,255.42 694.01,259.05L664.49,276.91Q658.50,280.53 658.36,273.53Z" fill="#D4975C" fill-opacity="0.77"/>
  <path d="M732.51,277.94Q727.29,282.61 725.85,275.76L718.75,242.00Q717.31,235.15 723.96,237.33L756.75,248.06Q763.40,250.23 758.19,254.91Z" fill="#D89E62" fill-opacity="0.75"/>
  <path d="M793.00,277.08Q787.10,280.85 786.79,273.86L785.24,239.40Q784.93,232.40 791.14,235.63L821.76,251.52Q827.97,254.74 822.07,258.51Z" fill="#D89E62" fill-opacity="0.72"/>
  <path d="M875.11,275.24Q874.01,282.15 868.57,277.74L841.78,256.00Q836.35,251.59 842.89,249.09L875.11,236.76Q881.64,234.26 880.54,241.17Z" fill="#CC8C52" fill-opacity="0.75"/>
  <path d="M943.97,240.55Q950.94,239.94 947.98,246.29L933.39,277.55Q930.44,283.89 926.42,278.16L906.64,249.90Q902.63,244.16 909.60,243.55Z" fill="#D69A5E" fill-opacity="0.72"/>
  <path d="M975.72,271.12Q968.74,271.58 971.83,265.30L987.05,234.34Q990.14,228.06 994.03,233.88L1013.23,262.54Q1017.13,268.36 1010.14,268.82Z" fill="#D4975C" fill-opacity="0.64"/>
  <path d="M1064.82,276.39Q1062.93,283.13 1058.04,278.12L1033.93,253.45Q1029.04,248.44 1035.82,246.71L1069.25,238.17Q1076.03,236.43 1074.14,243.17Z" fill="#D69A5E" fill-opacity="0.73"/>
  <path d="M1113.53,277.25Q1107.72,281.16 1107.23,274.18L1104.83,239.77Q1104.35,232.78 1110.64,235.85L1141.64,250.98Q1147.93,254.05 1142.13,257.96Z" fill="#CC8C52" fill-opacity="0.68"/>
  <path d="M1192.37,276.58Q1190.33,283.27 1185.55,278.16L1161.99,252.96Q1157.21,247.85 1164.03,246.26L1197.64,238.46Q1204.46,236.88 1202.42,243.58Z" fill="#CC8C52" fill-opacity="0.79"/>
  <path d="M1268.37,247.13Q1275.11,249.01 1270.12,253.91L1245.49,278.07Q1240.50,282.98 1238.75,276.20L1230.14,242.79Q1228.39,236.02 1235.13,237.89Z" fill="#D09058" fill-opacity="0.75"/>
  <path d="M1310.80,278.18Q1306.10,283.37 1303.96,276.71L1293.39,243.87Q1291.25,237.21 1298.09,238.68L1331.81,245.95Q1338.65,247.42 1333.96,252.61Z" fill="#D69A5E" fill-opacity="0.65"/>
  <path d="M1381.96,234.60Q1387.67,230.55 1388.33,237.52L1391.55,271.86Q1392.21,278.83 1385.84,275.92L1354.49,261.54Q1348.12,258.62 1353.83,254.57Z" fill="#D09058" fill-opacity="0.75"/>
  <path d="M1446.94,277.10Q1444.44,283.65 1440.03,278.22L1418.25,251.45Q1413.84,246.02 1420.75,244.91L1454.81,239.44Q1461.72,238.33 1459.23,244.87Z" fill="#D09058" fill-opacity="0.59"/>
  <path d="M-41.98,322.93Q-37.17,328.02 -43.98,329.63L-77.55,337.61Q-84.36,339.23 -82.35,332.52L-72.48,299.47Q-70.47,292.76 -65.67,297.85Z" fill="#CC8C52" fill-opacity="0.73"/>
  <path d="M-0.93,297.80Q3.25,292.19 6.02,298.62L19.69,330.29Q22.46,336.72 15.51,335.90L-18.76,331.91Q-25.71,331.09 -21.53,325.48Z" fill="#CC8C52" fill-opacity="0.67"/>
  <path d="M46.41,306.43Q44.80,299.62 51.51,301.63L84.55,311.55Q91.25,313.57 86.16,318.37L61.04,342.02Q55.95,346.82 54.34,340.00Z" fill="#D09058" fill-opacity="0.77"/>
  <path d="M113.97,337.22Q107.12,338.65 109.31,332.00L120.10,299.24Q122.29,292.59 126.95,297.81L149.93,323.54Q154.59,328.76 147.74,330.19Z" fill="#CC8C52" fill-opacity="0.62"/>
  <path d="M176.88,303.72Q176.42,296.74 182.70,299.83L213.66,315.05Q219.94,318.14 214.12,322.03L185.46,341.23Q179.65,345.13 179.18,338.14Z" fill="#D4975C" fill-opacity="0.82"/>
  <path d="M267.34,300.90Q273.91,298.48 272.72,305.37L266.87,339.37Q265.69,346.27 260.31,341.79L233.79,319.73Q228.41,315.25 234.97,312.83Z" fill="#D4975C" fill-opacity="0.78"/>
  <path d="M327.70,340.84Q325.45,347.47 320.83,342.20L298.10,316.25Q293.49,310.98 300.36,309.62L334.20,302.91Q341.06,301.55 338.81,308.18Z" fill="#D69A5E" fill-opacity="0.69"/>
  <path d="M362.24,315.53Q357.80,310.12 364.71,308.98L398.75,303.39Q405.66,302.25 403.19,308.80L391.01,341.08Q388.54,347.63 384.10,342.22Z" fill="#D4975C" fill-opacity="0.69"/>
  <path d="M451.65,298.09Q456.89,293.45 458.28,300.31L465.16,334.11Q466.55,340.97 459.91,338.75L427.20,327.80Q420.56,325.58 425.80,320.94Z" fill="#D69A5E" fill-opacity="0.85"/>
  <path d="M491.92,310.51Q488.89,304.20 495.87,304.73L530.26,307.35Q537.24,307.89 533.29,313.66L513.82,342.14Q509.87,347.92 506.84,341.61Z" fill="#CC8C52" fill-opacity="0.73"/>
  <path d="M568.36,299.14Q570.63,292.52 575.23,297.80L597.89,323.81Q602.48,329.09 595.61,330.43L561.76,337.05Q554.89,338.39 557.16,331.77Z" fill="#D69A5E" fill-opacity="0.68"/>
  <path d="M656.35,304.96Q663.34,304.53 660.22,310.80L644.84,341.68Q641.73,347.95 637.86,342.11L618.80,313.36Q614.93,307.52 621.92,307.09Z" fill="#CC8C52" fill-opacity="0.82"/>
  <path d="M699.63,298.22Q702.88,292.02 706.62,297.94L725.05,327.10Q728.79,333.02 721.79,333.30L687.32,334.68Q680.33,334.96 683.58,328.76Z" fill="#CC8C52" fill-opacity="0.69"/>
  <path d="M764.75,298.02Q768.31,292.00 771.74,298.10L788.66,328.17Q792.09,334.27 785.09,334.19L750.60,333.81Q743.60,333.73 747.16,327.71Z" fill="#D89E62" fill-opacity="0.78"/>
  <path d="M809.79,320.54Q804.25,316.26 810.73,313.60L842.64,300.50Q849.11,297.84 848.18,304.77L843.57,338.96Q842.64,345.90 837.10,341.62Z" fill="#D09058" fill-opacity="0.63"/>
  <path d="M917.03,327.17Q920.75,333.10 913.75,333.36L879.28,334.62Q872.28,334.88 875.56,328.69L891.70,298.21Q894.97,292.02 898.69,297.95Z" fill="#D89E62" fill-opacity="0.62"/>
  <path d="M951.74,340.62Q945.62,344.02 945.73,337.03L946.27,302.53Q946.38,295.53 952.39,299.13L981.99,316.85Q988.00,320.44 981.88,323.85Z" fill="#D69A5E" fill-opacity="0.57"/>
  <path d="M1039.64,335.77Q1040.34,342.74 1033.96,339.86L1002.52,325.66Q996.14,322.78 1001.82,318.70L1029.84,298.57Q1035.52,294.48 1036.22,301.45Z" fill="#CC8C52" fill-opacity="0.76"/>
  <path d="M1078.70,299.83Q1080.43,293.04 1085.44,297.93L1110.12,322.03Q1115.13,326.92 1108.39,328.81L1075.18,338.14Q1068.44,340.04 1070.17,333.25Z" fill="#D4975C" fill-opacity="0.67"/>
  <path d="M1144.38,340.87Q1138.38,344.46 1138.27,337.46L1137.74,302.97Q1137.63,295.97 1143.74,299.38L1173.88,316.16Q1180.00,319.57 1173.99,323.16Z" fill="#CC8C52" fill-opacity="0.67"/>
  <path d="M1225.25,340.20Q1223.50,346.98 1218.51,342.07L1193.88,317.91Q1188.89,313.01 1195.63,311.13L1228.87,301.89Q1235.61,300.02 1233.86,306.79Z" fill="#CC8C52" fill-opacity="0.67"/>
  <path d="M1279.25,297.80Q1283.47,292.22 1286.19,298.67L1299.60,330.45Q1302.32,336.90 1295.38,336.03L1261.15,331.75Q1254.20,330.88 1258.43,325.30Z" fill="#D4975C" fill-opacity="0.81"/>
  <path d="M1342.66,297.83Q1346.74,292.13 1349.63,298.51L1363.87,329.93Q1366.76,336.31 1359.80,335.62L1325.46,332.25Q1318.50,331.56 1322.57,325.87Z" fill="#CC8C52" fill-opacity="0.69"/>
  <path d="M1427.30,309.00Q1434.21,310.14 1429.77,315.55L1407.88,342.21Q1403.43,347.63 1400.97,341.07L1388.82,308.78Q1386.36,302.23 1393.27,303.37Z" fill="#D89E62" fill-opacity="0.78"/>
  <path d="M1482.49,300.42Q1488.94,297.71 1488.06,304.65L1483.71,338.88Q1482.83,345.82 1477.26,341.58L1449.80,320.71Q1444.22,316.47 1450.68,313.76Z" fill="#CC8C52" fill-opacity="0.71"/>
  <path d="M-37.60,362.50Q-34.70,356.13 -30.63,361.83L-10.58,389.90Q-6.51,395.60 -13.48,396.27L-47.82,399.60Q-54.79,400.27 -51.89,393.90Z" fill="#D69A5E" fill-opacity="0.82"/>
  <path d="M10.38,389.11Q4.08,386.07 9.86,382.13L38.38,362.72Q44.17,358.78 44.69,365.76L47.24,400.17Q47.75,407.15 41.45,404.11Z" fill="#D89E62" fill-opacity="0.68"/>
  <path d="M118.21,384.54Q123.54,389.08 116.94,391.42L84.43,402.97Q77.83,405.31 79.10,398.42L85.36,364.50Q86.63,357.61 91.96,362.16Z" fill="#D89E62" fill-opacity="0.75"/>
  <path d="M163.19,362.02Q168.34,357.27 169.88,364.10L177.44,397.76Q178.98,404.59 172.30,402.50L139.36,392.23Q132.68,390.14 137.83,385.40Z" fill="#D09058" fill-opacity="0.80"/>
  <path d="M241.50,370.31Q248.50,370.44 244.89,376.44L227.10,406.00Q223.49,412.00 220.10,405.87L203.40,375.69Q200.01,369.56 207.01,369.69Z" fill="#D69A5E" fill-opacity="0.71"/>
  <path d="M304.36,368.97Q311.35,368.54 308.22,374.81L292.83,405.68Q289.71,411.95 285.85,406.11L266.80,377.35Q262.94,371.51 269.93,371.08Z" fill="#D69A5E" fill-opacity="0.72"/>
  <path d="M374.21,384.27Q379.60,388.75 373.03,391.17L340.66,403.10Q334.09,405.53 335.28,398.63L341.13,364.63Q342.31,357.73 347.69,362.21Z" fill="#CC8C52" fill-opacity="0.59"/>
  <path d="M395.53,392.63Q388.81,390.67 393.86,385.83L418.76,361.96Q423.82,357.11 425.49,363.91L433.71,397.41Q435.38,404.21 428.65,402.26Z" fill="#D4975C" fill-opacity="0.63"/>
  <path d="M472.85,405.03Q466.92,408.76 466.66,401.76L465.36,367.29Q465.10,360.29 471.29,363.56L501.79,379.68Q507.98,382.95 502.05,386.67Z" fill="#CC8C52" fill-opacity="0.65"/>
  <path d="M542.06,361.87Q545.97,356.07 549.04,362.36L564.14,393.38Q567.20,399.67 560.22,399.18L525.81,396.75Q518.82,396.26 522.74,390.46Z" fill="#CC8C52" fill-opacity="0.63"/>
  <path d="M627.86,374.04Q634.69,375.55 629.97,380.72L606.69,406.18Q601.97,411.34 599.86,404.67L589.45,371.78Q587.33,365.11 594.17,366.61Z" fill="#CC8C52" fill-opacity="0.63"/>
  <path d="M692.82,391.75Q696.37,397.78 689.37,397.84L654.88,398.15Q647.88,398.22 651.32,392.12L668.30,362.09Q671.75,356.00 675.30,362.03Z" fill="#D4975C" fill-opacity="0.77"/>
  <path d="M757.90,387.74Q762.51,393.00 755.65,394.37L721.81,401.10Q714.95,402.46 717.20,395.83L728.29,363.17Q730.54,356.54 735.15,361.80Z" fill="#D89E62" fill-opacity="0.62"/>
  <path d="M821.39,389.99Q825.44,395.70 818.47,396.35L784.12,399.53Q777.15,400.18 780.07,393.82L794.49,362.48Q797.41,356.12 801.46,361.83Z" fill="#D4975C" fill-opacity="0.78"/>
  <path d="M883.76,373.84Q890.61,375.28 885.94,380.50L862.92,406.19Q858.25,411.40 856.07,404.75L845.33,371.97Q843.15,365.32 850.00,366.75Z" fill="#D09058" fill-opacity="0.80"/>
  <path d="M909.72,371.38Q907.75,364.66 914.55,366.32L948.07,374.48Q954.87,376.13 950.04,381.19L926.21,406.14Q921.38,411.21 919.41,404.49Z" fill="#D09058" fill-opacity="0.59"/>
  <path d="M978.30,366.51Q978.43,359.51 984.43,363.12L1014.00,380.89Q1020.00,384.49 1013.87,387.88L983.70,404.61Q977.58,408.00 977.70,401.00Z" fill="#D69A5E" fill-opacity="0.83"/>
  <path d="M1035.35,392.20Q1028.67,390.10 1033.83,385.37L1059.23,362.02Q1064.38,357.28 1065.90,364.11L1073.42,397.78Q1074.95,404.61 1068.27,402.52Z" fill="#D89E62" fill-opacity="0.78"/>
  <path d="M1133.88,401.35Q1133.83,408.35 1127.79,404.80L1098.04,387.35Q1092.00,383.80 1098.09,380.35L1128.08,363.31Q1134.17,359.85 1134.12,366.85Z" fill="#D69A5E" fill-opacity="0.84"/>
  <path d="M1176.24,363.19Q1178.47,356.55 1183.10,361.80L1205.91,387.68Q1210.54,392.93 1203.67,394.32L1169.86,401.13Q1162.99,402.51 1165.23,395.88Z" fill="#D09058" fill-opacity="0.84"/>
  <path d="M1267.27,395.06Q1269.79,401.59 1262.87,400.50L1228.79,395.16Q1221.87,394.07 1226.27,388.63L1247.94,361.78Q1252.34,356.34 1254.86,362.87Z" fill="#D4975C" fill-opacity="0.83"/>
  <path d="M1290.90,377.05Q1287.12,371.16 1294.11,370.83L1328.57,369.20Q1335.56,368.87 1332.35,375.09L1316.53,405.75Q1313.33,411.97 1309.54,406.08Z" fill="#CC8C52" fill-opacity="0.67"/>
  <path d="M1367.80,363.35Q1369.89,356.67 1374.63,361.83L1397.98,387.22Q1402.72,392.38 1395.89,393.90L1362.22,401.42Q1355.39,402.95 1357.48,396.27Z" fill="#D4975C" fill-opacity="0.73"/>
  <path d="M1447.58,363.12Q1453.58,359.51 1453.70,366.51L1454.30,401.00Q1454.42,408.00 1448.30,404.61L1418.13,387.88Q1412.00,384.49 1418.00,380.88Z" fill="#D09058" fill-opacity="0.58"/>
  <path d="M-64.38,425.79Q-60.06,420.28 -57.45,426.77L-44.58,458.78Q-41.96,465.27 -48.89,464.29L-83.05,459.43Q-89.98,458.45 -85.66,452.94Z" fill="#D69A5E" fill-opacity="0.79"/>
  <path d="M2.93,425.98Q8.02,421.17 9.64,427.98L17.61,461.55Q19.22,468.36 12.52,466.35L-20.54,456.47Q-27.24,454.47 -22.15,449.66Z" fill="#D69A5E" fill-opacity="0.78"/>
  <path d="M54.29,467.98Q47.94,470.94 48.55,463.96L51.55,429.60Q52.16,422.62 57.90,426.64L86.16,446.42Q91.89,450.44 85.55,453.40Z" fill="#CC8C52" fill-opacity="0.75"/>
  <path d="M149.38,454.03Q153.41,459.76 146.44,460.39L112.08,463.50Q105.11,464.13 108.05,457.78L122.54,426.47Q125.47,420.11 129.51,425.84Z" fill="#D89E62" fill-opacity="0.55"/>
  <path d="M174.46,461.63Q167.46,461.48 171.09,455.49L188.97,425.99Q192.60,420.01 195.97,426.14L212.57,456.38Q215.94,462.51 208.95,462.36Z" fill="#CC8C52" fill-opacity="0.58"/>
  <path d="M276.42,439.26Q283.15,441.17 278.13,446.04L253.36,470.06Q248.34,474.93 246.63,468.14L238.22,434.69Q236.51,427.90 243.24,429.81Z" fill="#CC8C52" fill-opacity="0.76"/>
  <path d="M301.22,459.87Q294.27,459.04 298.46,453.43L319.11,425.80Q323.30,420.20 326.06,426.63L339.67,458.33Q342.43,464.76 335.48,463.94Z" fill="#D69A5E" fill-opacity="0.84"/>
  <path d="M384.71,470.20Q380.48,475.78 377.77,469.32L364.42,437.51Q361.71,431.06 368.65,431.94L402.87,436.28Q409.82,437.16 405.58,442.74Z" fill="#D69A5E" fill-opacity="0.78"/>
  <path d="M427.36,456.22Q420.68,454.13 425.83,449.39L451.20,426.02Q456.35,421.27 457.88,428.10L465.44,461.77Q466.97,468.60 460.29,466.51Z" fill="#D69A5E" fill-opacity="0.63"/>
  <path d="M522.28,428.30Q528.70,425.53 527.89,432.48L523.92,466.75Q523.11,473.70 517.49,469.53L489.81,448.95Q484.19,444.77 490.61,442.00Z" fill="#D4975C" fill-opacity="0.63"/>
  <path d="M556.17,458.01Q549.33,456.52 554.04,451.34L577.25,425.82Q581.96,420.64 584.09,427.31L594.58,460.17Q596.71,466.84 589.87,465.35Z" fill="#CC8C52" fill-opacity="0.72"/>
  <path d="M626.17,430.62Q626.23,423.62 632.26,427.18L661.97,444.71Q668.00,448.27 661.90,451.71L631.86,468.67Q625.77,472.11 625.84,465.11Z" fill="#D89E62" fill-opacity="0.56"/>
  <path d="M714.18,428.26Q720.59,425.45 719.82,432.40L716.01,466.69Q715.24,473.65 709.60,469.50L681.81,449.05Q676.17,444.91 682.58,442.10Z" fill="#D09058" fill-opacity="0.70"/>
  <path d="M757.34,467.49Q750.86,470.14 751.81,463.21L756.45,429.02Q757.39,422.09 762.93,426.37L790.21,447.49Q795.75,451.77 789.27,454.42Z" fill="#D89E62" fill-opacity="0.65"/>
  <path d="M845.63,430.46Q852.45,428.87 850.41,435.57L840.38,468.58Q838.34,475.27 833.56,470.16L809.99,444.97Q805.21,439.85 812.03,438.27Z" fill="#D89E62" fill-opacity="0.72"/>
  <path d="M873.82,449.19Q868.15,445.08 874.55,442.23L906.06,428.19Q912.45,425.34 911.72,432.31L908.12,466.61Q907.39,473.58 901.73,469.46Z" fill="#D09058" fill-opacity="0.58"/>
  <path d="M952.46,427.10Q954.77,420.49 959.34,425.79L981.87,451.92Q986.44,457.22 979.56,458.53L945.67,464.98Q938.80,466.29 941.10,459.68Z" fill="#CC8C52" fill-opacity="0.72"/>
  <path d="M1028.83,469.68Q1025.70,475.95 1021.84,470.11L1002.81,441.34Q998.95,435.50 1005.93,435.07L1040.37,432.98Q1047.35,432.55 1044.23,438.82Z" fill="#CC8C52" fill-opacity="0.74"/>
  <path d="M1066.30,452.76Q1060.05,449.61 1065.90,445.77L1094.73,426.83Q1100.58,422.98 1100.98,429.97L1102.97,464.41Q1103.37,471.40 1097.12,468.26Z" fill="#D4975C" fill-opacity="0.58"/>
  <path d="M1159.34,468.97Q1156.97,475.56 1152.45,470.21L1130.17,443.87Q1125.65,438.53 1132.54,437.28L1166.49,431.16Q1173.38,429.92 1171.01,436.50Z" fill="#D09058" fill-opacity="0.64"/>
  <path d="M1195.16,440.29Q1191.60,434.27 1198.60,434.19L1233.09,433.81Q1240.09,433.73 1236.66,439.83L1219.74,469.90Q1216.31,476.00 1212.75,469.98Z" fill="#CC8C52" fill-opacity="0.72"/>
  <path d="M1270.72,468.18Q1264.44,471.28 1264.90,464.30L1267.16,429.87Q1267.62,422.89 1273.44,426.78L1302.12,445.94Q1307.94,449.83 1301.66,452.93Z" fill="#D69A5E" fill-opacity="0.65"/>
  <path d="M1334.25,428.04Q1335.83,421.22 1340.94,426.00L1366.16,449.54Q1371.28,454.31 1364.58,456.36L1331.59,466.43Q1324.89,468.47 1326.47,461.65Z" fill="#D89E62" fill-opacity="0.64"/>
  <path d="M1414.15,469.35Q1411.42,475.79 1407.20,470.20L1386.44,442.65Q1382.22,437.06 1389.17,436.21L1423.41,432.00Q1430.36,431.15 1427.63,437.59Z" fill="#D09058" fill-opacity="0.64"/>
  <path d="M1467.52,426.24Q1470.75,420.03 1474.52,425.93L1493.08,455.00Q1496.85,460.90 1489.86,461.21L1455.39,462.76Q1448.40,463.07 1451.63,456.86Z" fill="#D09058" fill-opacity="0.61"/>
  <path d="M-37.06,490.37Q-34.00,484.07 -30.08,489.87L-10.74,518.43Q-6.81,524.23 -13.79,524.73L-48.20,527.20Q-55.19,527.70 -52.13,521.40Z" fill="#D89E62" fill-opacity="0.77"/>
  <path d="M53.19,505.32Q59.70,507.90 54.21,512.25L27.19,533.69Q21.70,538.04 20.68,531.11L15.62,496.99Q14.60,490.06 21.11,492.64Z" fill="#D69A5E" fill-opacity="0.73"/>
  <path d="M117.35,505.85Q123.79,508.58 118.20,512.79L90.66,533.56Q85.07,537.78 84.21,530.83L80.00,496.59Q79.14,489.64 85.59,492.38Z" fill="#D09058" fill-opacity="0.64"/>
  <path d="M148.61,531.07Q142.03,533.48 143.24,526.58L149.18,492.60Q150.39,485.70 155.75,490.19L182.21,512.33Q187.58,516.82 181.01,519.23Z" fill="#D89E62" fill-opacity="0.55"/>
  <path d="M201.82,510.75Q196.64,506.04 203.31,503.91L236.17,493.42Q242.84,491.29 241.35,498.13L234.01,531.83Q232.52,538.67 227.34,533.96Z" fill="#D89E62" fill-opacity="0.56"/>
  <path d="M309.84,516.07Q314.37,521.41 307.49,522.67L273.55,528.88Q266.67,530.14 269.02,523.54L280.61,491.05Q282.96,484.46 287.49,489.79Z" fill="#D89E62" fill-opacity="0.76"/>
  <path d="M369.88,525.18Q371.64,531.96 364.89,530.09L331.64,520.90Q324.90,519.03 329.89,514.12L354.47,489.92Q359.46,485.01 361.22,491.79Z" fill="#CC8C52" fill-opacity="0.58"/>
  <path d="M438.14,510.20Q443.92,514.16 437.60,517.18L406.49,532.08Q400.17,535.10 400.71,528.12L403.37,493.72Q403.91,486.75 409.68,490.70Z" fill="#D89E62" fill-opacity="0.69"/>
  <path d="M460.86,523.27Q453.94,522.23 458.30,516.76L479.81,489.79Q484.17,484.31 486.73,490.83L499.33,522.94Q501.89,529.46 494.97,528.41Z" fill="#D09058" fill-opacity="0.84"/>
  <path d="M547.16,533.99Q543.56,540.00 540.16,533.88L523.38,503.74Q519.97,497.62 526.97,497.73L561.46,498.27Q568.46,498.38 564.87,504.39Z" fill="#CC8C52" fill-opacity="0.58"/>
  <path d="M629.51,517.55Q633.67,523.18 626.72,523.97L592.44,527.86Q585.49,528.65 588.28,522.23L602.05,490.60Q604.84,484.18 609.00,489.81Z" fill="#CC8C52" fill-opacity="0.57"/>
  <path d="M654.38,498.47Q652.76,491.66 659.47,493.66L692.53,503.51Q699.24,505.51 694.15,510.32L669.09,534.02Q664.00,538.83 662.38,532.02Z" fill="#D4975C" fill-opacity="0.60"/>
  <path d="M740.98,490.35Q746.49,486.04 747.47,492.97L752.26,527.14Q753.23,534.07 746.74,531.44L714.76,518.51Q708.27,515.89 713.79,511.58Z" fill="#D89E62" fill-opacity="0.58"/>
  <path d="M803.75,533.90Q800.32,540.00 796.75,533.98L779.16,504.30Q775.59,498.28 782.59,498.20L817.09,497.80Q824.09,497.73 820.66,503.83Z" fill="#D69A5E" fill-opacity="0.78"/>
  <path d="M844.61,501.16Q842.02,494.66 848.95,495.66L883.08,500.63Q890.01,501.64 885.68,507.13L864.31,534.21Q859.97,539.71 857.38,533.21Z" fill="#D69A5E" fill-opacity="0.62"/>
  <path d="M905.79,512.36Q900.28,508.04 906.78,505.43L938.79,492.58Q945.29,489.97 944.30,496.90L939.42,531.05Q938.43,537.98 932.93,533.66Z" fill="#CC8C52" fill-opacity="0.82"/>
  <path d="M988.91,534.00Q983.79,538.77 982.22,531.95L974.49,498.33Q972.92,491.51 979.61,493.56L1012.60,503.67Q1019.29,505.72 1014.16,510.49Z" fill="#D69A5E" fill-opacity="0.85"/>
  <path d="M1051.81,533.82Q1046.45,538.32 1045.23,531.43L1039.20,497.46Q1037.98,490.57 1044.56,492.96L1076.99,504.72Q1083.57,507.11 1078.21,511.61Z" fill="#D69A5E" fill-opacity="0.57"/>
  <path d="M1140.38,503.17Q1147.13,505.06 1142.12,509.95L1117.46,534.07Q1112.45,538.96 1110.72,532.18L1102.16,498.76Q1100.42,491.98 1107.16,493.87Z" fill="#D4975C" fill-opacity="0.83"/>
  <path d="M1193.13,532.25Q1191.34,539.02 1186.37,534.09L1161.90,509.78Q1156.93,504.85 1163.68,503.01L1196.98,493.97Q1203.73,492.13 1201.94,498.90Z" fill="#D09058" fill-opacity="0.63"/>
  <path d="M1268.85,519.66Q1272.44,525.67 1265.44,525.77L1230.94,526.23Q1223.94,526.33 1227.36,520.22L1244.20,490.11Q1247.62,484.00 1251.20,490.02Z" fill="#D09058" fill-opacity="0.60"/>
  <path d="M1333.13,518.85Q1336.94,524.72 1329.95,525.09L1295.50,526.88Q1288.51,527.24 1291.69,521.00L1307.37,490.27Q1310.55,484.04 1314.36,489.91Z" fill="#D4975C" fill-opacity="0.67"/>
  <path d="M1364.59,492.94Q1365.59,486.01 1371.09,490.33L1398.21,511.65Q1403.72,515.98 1397.22,518.58L1365.19,531.41Q1358.69,534.01 1359.69,527.08Z" fill="#CC8C52" fill-opacity="0.64"/>
  <path d="M1446.02,533.38Q1443.25,539.81 1439.07,534.20L1418.47,506.53Q1414.29,500.91 1421.24,500.10L1455.51,496.09Q1462.46,495.28 1459.69,501.71Z" fill="#D89E62" fill-opacity="0.76"/>
  <path d="M-84.03,585.60Q-90.84,583.98 -86.03,578.89L-62.30,553.85Q-57.49,548.77 -55.49,555.48L-45.67,588.55Q-43.67,595.26 -50.48,593.63Z" fill="#D09058" fill-opacity="0.83"/>
  <path d="M1.76,553.85Q6.59,548.79 8.57,555.50L18.30,588.60Q20.27,595.32 13.47,593.67L-20.06,585.55Q-26.86,583.90 -22.03,578.83Z" fill="#D69A5E" fill-opacity="0.75"/>
  <path d="M82.64,563.92Q89.60,564.67 85.48,570.32L65.14,598.19Q61.01,603.84 58.18,597.44L44.22,565.90Q41.38,559.49 48.34,560.24Z" fill="#CC8C52" fill-opacity="0.58"/>
  <path d="M134.91,597.11Q132.41,603.65 128.00,598.22L106.26,571.43Q101.85,566.00 108.76,564.89L142.83,559.46Q149.74,558.35 147.24,564.89Z" fill="#D09058" fill-opacity="0.82"/>
  <path d="M199.06,554.94Q204.97,551.18 205.26,558.18L206.71,592.64Q207.01,599.64 200.80,596.40L170.23,580.42Q164.02,577.18 169.93,573.43Z" fill="#D4975C" fill-opacity="0.57"/>
  <path d="M258.43,553.92Q263.41,549.00 265.18,555.77L273.91,589.15Q275.68,595.92 268.93,594.07L235.66,584.94Q228.91,583.08 233.89,578.16Z" fill="#D69A5E" fill-opacity="0.77"/>
  <path d="M298.63,569.93Q294.61,564.20 301.58,563.58L335.94,560.53Q342.91,559.91 339.96,566.25L325.43,597.54Q322.48,603.89 318.46,598.16Z" fill="#D89E62" fill-opacity="0.68"/>
  <path d="M363.17,583.72Q356.54,581.47 361.80,576.85L387.73,554.10Q392.99,549.48 394.36,556.35L401.10,590.18Q402.47,597.05 395.84,594.80Z" fill="#D89E62" fill-opacity="0.76"/>
  <path d="M467.30,564.99Q474.20,566.13 469.76,571.54L447.88,598.21Q443.44,603.63 440.98,597.08L428.82,564.79Q426.35,558.24 433.26,559.38Z" fill="#D69A5E" fill-opacity="0.71"/>
  <path d="M493.05,587.60Q486.11,586.67 490.38,581.13L511.43,553.79Q515.70,548.25 518.37,554.72L531.52,586.61Q534.19,593.08 527.25,592.16Z" fill="#D69A5E" fill-opacity="0.56"/>
  <path d="M557.48,588.27Q550.51,587.60 554.58,581.90L574.63,553.83Q578.70,548.13 581.60,554.50L595.89,585.90Q598.79,592.27 591.82,591.60Z" fill="#D89E62" fill-opacity="0.73"/>
  <path d="M662.22,576.10Q667.63,580.53 661.08,583.00L628.81,595.19Q622.26,597.66 623.39,590.76L628.98,556.71Q630.11,549.81 635.52,554.24Z" fill="#D09058" fill-opacity="0.84"/>
  <path d="M712.28,555.39Q718.40,551.99 718.28,558.98L717.71,593.48Q717.60,600.48 711.59,596.88L682.01,579.14Q676.00,575.54 682.12,572.14Z" fill="#D69A5E" fill-opacity="0.73"/>
  <path d="M790.21,575.38Q795.76,579.64 789.30,582.32L757.43,595.54Q750.97,598.22 751.88,591.28L756.36,557.08Q757.27,550.14 762.83,554.40Z" fill="#D89E62" fill-opacity="0.72"/>
  <path d="M830.32,553.85Q834.30,548.09 837.29,554.42L852.03,585.62Q855.01,591.95 848.04,591.37L813.66,588.53Q806.68,587.96 810.67,582.20Z" fill="#D09058" fill-opacity="0.69"/>
  <path d="M880.42,560.16Q879.76,553.19 886.13,556.10L917.51,570.43Q923.87,573.34 918.17,577.40L890.07,597.41Q884.37,601.47 883.70,594.50Z" fill="#D89E62" fill-opacity="0.60"/>
  <path d="M939.35,567.80Q935.93,561.70 942.93,561.78L977.42,562.22Q984.42,562.31 980.85,568.32L963.22,597.98Q959.65,604.00 956.23,597.89Z" fill="#CC8C52" fill-opacity="0.84"/>
  <path d="M1003.11,583.55Q996.50,581.24 1001.79,576.67L1027.91,554.13Q1033.21,549.56 1034.52,556.43L1040.98,590.32Q1042.29,597.20 1035.68,594.89Z" fill="#CC8C52" fill-opacity="0.65"/>
  <path d="M1074.38,558.45Q1074.53,551.45 1080.52,555.08L1110.01,572.98Q1115.99,576.61 1109.86,579.98L1079.61,596.57Q1073.48,599.94 1073.63,592.94Z" fill="#D09058" fill-opacity="0.65"/>
  <path d="M1141.11,556.63Q1142.30,549.74 1147.68,554.21L1174.21,576.26Q1179.60,580.73 1173.03,583.15L1140.67,595.11Q1134.11,597.54 1135.29,590.64Z" fill="#D89E62" fill-opacity="0.75"/>
  <path d="M1200.26,591.68Q1193.30,592.39 1196.17,586.01L1210.29,554.53Q1213.15,548.15 1217.25,553.82L1237.45,581.79Q1241.55,587.46 1234.58,588.17Z" fill="#D69A5E" fill-opacity="0.56"/>
  <path d="M1300.50,584.55Q1303.82,590.71 1296.83,590.51L1262.34,589.48Q1255.35,589.27 1259.02,583.32L1277.15,553.97Q1280.83,548.01 1284.15,554.18Z" fill="#D89E62" fill-opacity="0.65"/>
  <path d="M1364.90,568.48Q1371.51,570.79 1366.21,575.35L1340.07,597.86Q1334.76,602.43 1333.46,595.55L1327.03,561.66Q1325.73,554.78 1332.34,557.09Z" fill="#CC8C52" fill-opacity="0.81"/>
  <path d="M1414.83,554.86Q1420.70,551.05 1421.07,558.04L1422.89,592.49Q1423.26,599.48 1417.02,596.30L1386.28,580.65Q1380.04,577.48 1385.91,573.66Z" fill="#D4975C" fill-opacity="0.75"/>
  <path d="M1449.92,573.57Q1445.00,568.60 1451.77,566.82L1485.14,558.09Q1491.91,556.32 1490.06,563.07L1480.94,596.34Q1479.09,603.09 1474.17,598.11Z" fill="#CC8C52" fill-opacity="0.57"/>
  <path d="M-54.20,640.94Q-59.81,636.76 -53.39,633.99L-21.72,620.31Q-15.29,617.53 -16.10,624.49L-20.09,658.75Q-20.90,665.70 -26.51,661.53Z" fill="#D69A5E" fill-opacity="0.78"/>
  <path d="M14.05,626.92Q12.25,620.15 19.01,621.98L52.31,630.99Q59.06,632.82 54.10,637.76L29.65,662.09Q24.68,667.03 22.89,660.26Z" fill="#D4975C" fill-opacity="0.61"/>
  <path d="M74.04,636.66Q69.33,631.48 76.17,629.99L109.88,622.65Q116.72,621.16 114.59,627.83L104.09,660.69Q101.96,667.36 97.25,662.18Z" fill="#D89E62" fill-opacity="0.68"/>
  <path d="M149.68,620.33Q151.06,613.47 156.31,618.09L182.20,640.89Q187.45,645.52 180.82,647.76L148.13,658.78Q141.49,661.01 142.87,654.15Z" fill="#D4975C" fill-opacity="0.56"/>
  <path d="M206.43,626.40Q204.84,619.59 211.54,621.61L244.56,631.59Q251.26,633.61 246.16,638.40L221.01,662.01Q215.90,666.80 214.31,659.99Z" fill="#D09058" fill-opacity="0.76"/>
  <path d="M283.08,661.66Q277.57,665.98 276.58,659.06L271.70,624.90Q270.71,617.97 277.21,620.58L309.22,633.43Q315.72,636.04 310.21,640.36Z" fill="#D4975C" fill-opacity="0.72"/>
  <path d="M372.22,649.21Q375.33,655.48 368.35,655.04L333.92,652.90Q326.93,652.47 330.80,646.64L349.87,617.89Q353.74,612.05 356.85,618.32Z" fill="#D4975C" fill-opacity="0.69"/>
  <path d="M434.58,652.17Q436.71,658.84 429.87,657.35L396.17,650.01Q389.33,648.52 394.04,643.34L417.25,617.82Q421.96,612.64 424.09,619.31Z" fill="#D09058" fill-opacity="0.70"/>
  <path d="M472.01,619.27Q474.17,612.61 478.85,617.81L501.95,643.44Q506.63,648.64 499.79,650.10L466.05,657.29Q459.20,658.74 461.36,652.09Z" fill="#D69A5E" fill-opacity="0.76"/>
  <path d="M526.86,654.13Q519.86,654.18 523.31,648.09L540.34,618.09Q543.79,612.00 547.34,618.04L564.81,647.78Q568.35,653.82 561.35,653.87Z" fill="#CC8C52" fill-opacity="0.84"/>
  <path d="M612.36,661.78Q609.10,667.98 605.37,662.06L586.95,632.89Q583.22,626.97 590.21,626.69L624.68,625.33Q631.68,625.06 628.42,631.25Z" fill="#D69A5E" fill-opacity="0.59"/>
  <path d="M683.26,659.15Q682.21,666.07 676.74,661.70L649.79,640.17Q644.32,635.80 650.83,633.25L682.96,620.68Q689.48,618.12 688.43,625.04Z" fill="#D69A5E" fill-opacity="0.70"/>
  <path d="M749.52,622.37Q756.33,620.75 754.33,627.46L744.50,660.52Q742.51,667.23 737.70,662.15L713.97,637.10Q709.16,632.02 715.97,630.39Z" fill="#D4975C" fill-opacity="0.63"/>
  <path d="M802.07,617.88Q806.96,612.88 808.85,619.62L818.12,652.85Q820.00,659.59 813.22,657.85L779.81,649.27Q773.03,647.53 777.93,642.53Z" fill="#CC8C52" fill-opacity="0.65"/>
  <path d="M865.75,617.85Q870.57,612.78 872.55,619.50L882.31,652.59Q884.28,659.30 877.48,657.66L843.95,649.56Q837.14,647.92 841.97,642.84Z" fill="#D89E62" fill-opacity="0.80"/>
  <path d="M926.93,662.19Q922.26,667.41 920.08,660.76L909.32,627.98Q907.13,621.33 913.99,622.76L947.75,629.83Q954.60,631.26 949.93,636.48Z" fill="#D89E62" fill-opacity="0.80"/>
  <path d="M971.09,632.51Q967.46,626.52 974.46,626.37L1008.94,625.63Q1015.94,625.48 1012.57,631.62L995.97,661.86Q992.60,667.99 988.97,662.01Z" fill="#CC8C52" fill-opacity="0.81"/>
  <path d="M1036.44,650.53Q1029.56,649.23 1034.13,643.93L1056.66,617.79Q1061.23,612.49 1063.53,619.10L1074.90,651.67Q1077.21,658.28 1070.33,656.97Z" fill="#CC8C52" fill-opacity="0.65"/>
  <path d="M1098.10,636.29Q1093.48,631.03 1100.34,629.65L1134.17,622.89Q1141.03,621.52 1138.79,628.15L1127.73,660.83Q1125.49,667.46 1120.87,662.20Z" fill="#D69A5E" fill-opacity="0.66"/>
  <path d="M1202.58,627.82Q1209.54,628.53 1205.45,634.21L1185.25,662.18Q1181.16,667.86 1178.29,661.47L1164.16,630.00Q1161.30,623.61 1168.26,624.32Z" fill="#D09058" fill-opacity="0.84"/>
  <path d="M1253.03,661.64Q1249.97,667.93 1246.05,662.13L1226.74,633.54Q1222.83,627.74 1229.81,627.25L1264.22,624.82Q1271.20,624.33 1268.14,630.62Z" fill="#CC8C52" fill-opacity="0.62"/>
  <path d="M1312.05,617.78Q1316.47,612.36 1318.96,618.90L1331.21,651.15Q1333.70,657.70 1326.79,656.58L1292.74,651.06Q1285.83,649.94 1290.25,644.52Z" fill="#D4975C" fill-opacity="0.65"/>
  <path d="M1354.97,647.16Q1348.40,644.73 1353.79,640.26L1380.32,618.21Q1385.70,613.73 1386.88,620.63L1392.71,654.63Q1393.90,661.53 1387.33,659.11Z" fill="#CC8C52" fill-opacity="0.67"/>
  <path d="M1425.68,623.02Q1425.55,616.02 1431.68,619.40L1461.87,636.09Q1468.00,639.48 1462.00,643.09L1432.45,660.89Q1426.46,664.51 1426.33,657.51Z" fill="#D09058" fill-opacity="0.70"/>
  <path d="M-41.85,705.65Q-36.75,710.45 -43.46,712.46L-76.51,722.36Q-83.21,724.37 -81.60,717.56L-73.65,683.99Q-72.03,677.18 -66.94,681.98Z" fill="#D69A5E" fill-opacity="0.84"/>
  <path d="M-7.76,724.81Q-13.80,728.37 -13.85,721.37L-14.14,686.87Q-14.20,679.87 -8.11,683.32L21.91,700.32Q28.00,703.76 21.97,707.32Z" fill="#D4975C" fill-opacity="0.81"/>
  <path d="M44.87,715.29Q37.95,714.26 42.31,708.78L63.79,681.79Q68.14,676.31 70.71,682.82L83.35,714.92Q85.91,721.43 78.99,720.40Z" fill="#D69A5E" fill-opacity="0.82"/>
  <path d="M150.17,702.63Q155.87,706.70 149.50,709.60L118.10,723.89Q111.73,726.79 112.40,719.82L115.73,685.48Q116.40,678.52 122.10,682.58Z" fill="#D09058" fill-opacity="0.67"/>
  <path d="M176.75,687.84Q176.23,680.86 182.54,683.90L213.62,698.87Q219.92,701.91 214.14,705.85L185.63,725.28Q179.85,729.23 179.33,722.25Z" fill="#D09058" fill-opacity="0.57"/>
  <path d="M256.89,681.80Q261.51,676.55 263.75,683.18L274.78,715.87Q277.02,722.50 270.16,721.12L236.33,714.33Q229.47,712.95 234.09,707.70Z" fill="#D89E62" fill-opacity="0.65"/>
  <path d="M309.00,684.70Q310.14,677.79 315.55,682.24L342.21,704.12Q347.63,708.56 341.07,711.03L308.79,723.18Q302.24,725.64 303.38,718.74Z" fill="#D4975C" fill-opacity="0.81"/>
  <path d="M394.35,684.34Q400.79,681.59 399.96,688.54L395.85,722.79Q395.01,729.74 389.41,725.55L361.80,704.86Q356.20,700.66 362.64,697.91Z" fill="#D69A5E" fill-opacity="0.66"/>
  <path d="M442.28,725.46Q436.61,729.58 435.88,722.62L432.27,688.31Q431.54,681.35 437.94,684.20L469.45,698.23Q475.85,701.07 470.18,705.19Z" fill="#CC8C52" fill-opacity="0.81"/>
  <path d="M534.16,705.50Q539.29,710.26 532.60,712.32L499.62,722.45Q492.93,724.50 494.50,717.68L502.21,684.06Q503.78,677.23 508.90,682.00Z" fill="#D4975C" fill-opacity="0.62"/>
  <path d="M564.00,685.30Q564.78,678.35 570.42,682.50L598.19,702.96Q603.83,707.11 597.41,709.92L565.80,723.74Q559.39,726.54 560.17,719.59Z" fill="#D89E62" fill-opacity="0.85"/>
  <path d="M636.06,682.14Q639.43,676.01 643.05,682.00L660.91,711.51Q664.53,717.50 657.53,717.65L623.04,718.35Q616.04,718.49 619.42,712.36Z" fill="#CC8C52" fill-opacity="0.84"/>
  <path d="M701.94,681.88Q705.82,676.06 708.92,682.34L724.19,713.27Q727.29,719.55 720.30,719.09L685.88,716.85Q678.89,716.39 682.78,710.57Z" fill="#D4975C" fill-opacity="0.68"/>
  <path d="M757.15,684.61Q758.35,677.72 763.73,682.20L790.21,704.30Q795.59,708.79 789.02,711.20L756.63,723.09Q750.06,725.50 751.26,718.60Z" fill="#D4975C" fill-opacity="0.56"/>
  <path d="M834.92,681.98Q840.00,677.17 841.63,683.98L849.61,717.54Q851.23,724.35 844.53,722.35L811.47,712.48Q804.76,710.48 809.85,705.67Z" fill="#D89E62" fill-opacity="0.66"/>
  <path d="M877.59,716.43Q870.61,715.81 874.63,710.08L894.44,681.84Q898.46,676.11 901.42,682.46L915.97,713.73Q918.92,720.08 911.95,719.46Z" fill="#D09058" fill-opacity="0.71"/>
  <path d="M938.51,698.37Q934.37,692.73 941.33,691.97L975.62,688.20Q982.58,687.44 979.76,693.85L965.87,725.42Q963.06,731.83 958.92,726.19Z" fill="#D09058" fill-opacity="0.60"/>
  <path d="M1044.96,711.37Q1048.62,717.33 1041.63,717.52L1007.14,718.47Q1000.14,718.66 1003.48,712.50L1019.90,682.17Q1023.23,676.01 1026.90,681.97Z" fill="#CC8C52" fill-opacity="0.74"/>
  <path d="M1092.76,725.70Q1089.61,731.95 1085.77,726.10L1066.83,697.27Q1062.99,691.42 1069.97,691.02L1104.41,689.03Q1111.40,688.63 1108.26,694.88Z" fill="#D69A5E" fill-opacity="0.59"/>
  <path d="M1131.56,712.70Q1124.83,710.77 1129.87,705.91L1154.69,681.95Q1159.72,677.09 1161.42,683.88L1169.75,717.35Q1171.45,724.15 1164.72,722.22Z" fill="#D89E62" fill-opacity="0.69"/>
  <path d="M1202.02,686.74Q1202.03,679.74 1208.08,683.24L1237.94,700.52Q1244.00,704.03 1237.93,707.52L1208.04,724.74Q1201.97,728.23 1201.98,721.23Z" fill="#CC8C52" fill-opacity="0.82"/>
  <path d="M1267.22,685.83Q1267.70,678.85 1273.51,682.75L1302.13,702.02Q1307.93,705.92 1301.65,709.00L1270.66,724.15Q1264.37,727.23 1264.85,720.25Z" fill="#D09058" fill-opacity="0.57"/>
  <path d="M1363.47,693.30Q1370.36,694.55 1365.83,699.89L1343.53,726.21Q1339.00,731.55 1336.64,724.96L1325.00,692.49Q1322.64,685.90 1329.53,687.15Z" fill="#D69A5E" fill-opacity="0.64"/>
  <path d="M1428.49,695.41Q1435.21,697.38 1430.14,702.22L1405.19,726.04Q1400.13,730.87 1398.47,724.07L1390.32,690.55Q1388.67,683.75 1395.38,685.71Z" fill="#D89E62" fill-opacity="0.69"/>
  <path d="M1468.26,725.90Q1462.99,730.51 1461.63,723.65L1454.91,689.81Q1453.54,682.94 1460.17,685.20L1492.84,696.29Q1499.46,698.54 1494.20,703.16Z" fill="#CC8C52" fill-opacity="0.81"/>
  <path d="M-12.63,778.88Q-10.06,785.39 -16.98,784.37L-51.11,779.33Q-58.03,778.31 -53.69,772.82L-32.26,745.79Q-27.91,740.30 -25.33,746.81Z" fill="#CC8C52" fill-opacity="0.72"/>
  <path d="M10.86,761.18Q7.04,755.32 14.03,754.94L48.47,753.10Q55.46,752.72 52.29,758.96L36.67,789.72Q33.50,795.96 29.68,790.09Z" fill="#D89E62" fill-opacity="0.56"/>
  <path d="M103.51,747.09Q109.49,743.47 109.64,750.47L110.35,784.96Q110.50,791.95 104.37,788.58L74.14,771.95Q68.01,768.58 73.99,764.96Z" fill="#CC8C52" fill-opacity="0.63"/>
  <path d="M138.51,762.37Q134.37,756.73 141.33,755.97L175.62,752.20Q182.58,751.44 179.76,757.85L165.87,789.42Q163.06,795.83 158.92,790.19Z" fill="#D4975C" fill-opacity="0.82"/>
  <path d="M219.84,746.18Q223.15,740.01 226.83,745.97L244.98,775.30Q248.66,781.26 241.67,781.47L207.18,782.52Q200.19,782.73 203.50,776.56Z" fill="#D89E62" fill-opacity="0.78"/>
  <path d="M294.21,789.33Q291.49,795.78 287.26,790.20L266.42,762.71Q262.20,757.13 269.14,756.26L303.37,751.96Q310.32,751.09 307.60,757.54Z" fill="#D89E62" fill-opacity="0.62"/>
  <path d="M363.31,787.12Q362.29,794.04 356.80,789.69L329.79,768.24Q324.30,763.89 330.81,761.32L362.90,748.64Q369.41,746.07 368.38,753.00Z" fill="#D89E62" fill-opacity="0.75"/>
  <path d="M408.57,747.06Q410.91,740.47 415.46,745.79L437.85,772.04Q442.39,777.36 435.50,778.63L401.58,784.90Q394.70,786.17 397.04,779.57Z" fill="#D09058" fill-opacity="0.74"/>
  <path d="M496.02,752.61Q503.00,752.03 500.02,758.36L485.31,789.57Q482.33,795.90 478.34,790.15L458.66,761.82Q454.67,756.07 461.65,755.48Z" fill="#D4975C" fill-opacity="0.64"/>
  <path d="M524.83,779.23Q517.91,778.17 522.29,772.71L543.86,745.79Q548.23,740.32 550.78,746.84L563.31,778.98Q565.85,785.51 558.93,784.45Z" fill="#D69A5E" fill-opacity="0.66"/>
  <path d="M625.45,781.75Q626.99,788.58 620.30,786.50L587.37,776.23Q580.68,774.15 585.83,769.41L611.19,746.01Q616.33,741.27 617.87,748.10Z" fill="#D89E62" fill-opacity="0.65"/>
  <path d="M654.85,782.13Q647.85,782.18 651.31,776.09L668.34,746.09Q671.80,740.00 675.34,746.04L692.81,775.79Q696.35,781.82 689.35,781.87Z" fill="#D09058" fill-opacity="0.59"/>
  <path d="M713.87,766.02Q708.85,761.14 715.59,759.23L748.78,749.83Q755.52,747.92 753.80,754.71L745.35,788.15Q743.63,794.94 738.61,790.06Z" fill="#D89E62" fill-opacity="0.71"/>
  <path d="M816.97,753.66Q823.96,753.52 820.59,759.65L803.94,789.86Q800.56,795.99 796.94,790.00L779.10,760.48Q775.48,754.49 782.48,754.35Z" fill="#D09058" fill-opacity="0.63"/>
  <path d="M870.80,746.85Q876.66,743.03 877.04,750.02L878.92,784.46Q879.30,791.45 873.05,788.29L842.28,772.69Q836.04,769.52 841.90,765.70Z" fill="#CC8C52" fill-opacity="0.84"/>
  <path d="M925.22,790.04Q920.16,794.88 918.50,788.08L910.30,754.57Q908.64,747.77 915.36,749.73L948.48,759.39Q955.20,761.35 950.14,766.19Z" fill="#D89E62" fill-opacity="0.79"/>
  <path d="M971.19,775.77Q964.55,773.53 969.80,768.91L995.68,746.09Q1000.93,741.46 1002.31,748.32L1009.13,782.14Q1010.52,789.00 1003.88,786.77Z" fill="#D4975C" fill-opacity="0.59"/>
  <path d="M1076.72,759.99Q1083.38,762.15 1078.18,766.84L1052.57,789.95Q1047.38,794.64 1045.91,787.79L1038.71,754.06Q1037.24,747.21 1043.90,749.37Z" fill="#CC8C52" fill-opacity="0.84"/>
  <path d="M1124.08,746.16Q1129.42,741.63 1130.67,748.52L1136.87,782.45Q1138.13,789.34 1131.54,786.99L1099.05,775.38Q1092.46,773.03 1097.79,768.50Z" fill="#D89E62" fill-opacity="0.58"/>
  <path d="M1168.85,784.25Q1161.92,785.22 1164.55,778.73L1177.50,746.76Q1180.13,740.27 1184.43,745.79L1205.65,772.99Q1209.95,778.51 1203.02,779.48Z" fill="#D89E62" fill-opacity="0.71"/>
  <path d="M1227.92,777.51Q1221.12,775.85 1225.96,770.79L1249.80,745.86Q1254.64,740.80 1256.60,747.52L1266.27,780.63Q1268.24,787.35 1261.44,785.69Z" fill="#D89E62" fill-opacity="0.73"/>
  <path d="M1318.50,746.76Q1324.31,742.85 1324.78,749.83L1327.15,784.25Q1327.63,791.23 1321.34,788.16L1290.35,773.00Q1284.07,769.92 1289.87,766.01Z" fill="#D89E62" fill-opacity="0.58"/>
  <path d="M1381.71,789.47Q1378.84,795.86 1374.74,790.18L1354.55,762.21Q1350.46,756.53 1357.42,755.82L1391.74,752.32Q1398.70,751.61 1395.84,758.00Z" fill="#D4975C" fill-opacity="0.74"/>
  <path d="M1459.33,757.05Q1466.23,758.21 1461.78,763.61L1439.82,790.21Q1435.36,795.61 1432.91,789.05L1420.85,756.73Q1418.41,750.17 1425.31,751.33Z" fill="#D89E62" fill-opacity="0.82"/>
  <path d="M-56.63,852.96Q-58.99,859.55 -63.52,854.21L-85.83,827.90Q-90.36,822.56 -83.48,821.31L-49.53,815.14Q-42.65,813.89 -45.01,820.48Z" fill="#D4975C" fill-opacity="0.74"/>
  <path d="M-20.61,840.30Q-27.30,838.23 -22.17,833.47L3.12,810.00Q8.25,805.24 9.81,812.07L17.49,845.70Q19.05,852.52 12.36,850.46Z" fill="#D89E62" fill-opacity="0.74"/>
  <path d="M82.64,844.08Q84.81,850.74 77.96,849.28L44.22,842.11Q37.37,840.65 42.05,835.45L65.14,809.81Q69.82,804.61 71.99,811.27Z" fill="#D4975C" fill-opacity="0.83"/>
  <path d="M123.95,853.84Q118.62,858.38 117.35,851.50L111.11,817.57Q109.84,810.69 116.44,813.03L148.94,824.59Q155.54,826.93 150.21,831.47Z" fill="#CC8C52" fill-opacity="0.58"/>
  <path d="M197.58,853.50Q194.67,859.87 190.61,854.17L170.59,826.08Q166.53,820.38 173.49,819.71L207.84,816.42Q214.80,815.75 211.90,822.12Z" fill="#D69A5E" fill-opacity="0.59"/>
  <path d="M235.99,841.65Q229.18,840.04 233.98,834.95L257.65,809.85Q262.45,804.75 264.46,811.46L274.36,844.50Q276.37,851.21 269.56,849.60Z" fill="#D69A5E" fill-opacity="0.68"/>
  <path d="M315.44,810.26Q318.64,804.03 322.43,809.92L341.11,838.92Q344.90,844.81 337.91,845.15L303.45,846.82Q296.46,847.16 299.66,840.94Z" fill="#D09058" fill-opacity="0.82"/>
  <path d="M368.77,815.83Q368.25,808.85 374.55,811.89L405.62,826.89Q411.92,829.94 406.14,833.87L377.61,853.28Q371.83,857.21 371.31,850.23Z" fill="#CC8C52" fill-opacity="0.73"/>
  <path d="M467.04,820.56Q473.97,821.54 469.66,827.05L448.39,854.21Q444.07,859.72 441.46,853.23L428.57,821.23Q425.95,814.74 432.88,815.72Z" fill="#D89E62" fill-opacity="0.56"/>
  <path d="M499.47,850.35Q492.76,852.35 494.39,845.54L502.38,811.98Q504.00,805.17 509.08,809.98L534.15,833.68Q539.24,838.48 532.53,840.49Z" fill="#CC8C52" fill-opacity="0.68"/>
  <path d="M581.40,853.55Q578.44,859.89 574.43,854.16L554.64,825.90Q550.62,820.17 557.60,819.56L591.96,816.55Q598.94,815.94 595.98,822.28Z" fill="#D89E62" fill-opacity="0.58"/>
  <path d="M628.16,813.21Q628.99,806.26 634.59,810.45L662.20,831.14Q667.80,835.34 661.36,838.09L629.65,851.65Q623.21,854.41 624.04,847.46Z" fill="#D69A5E" fill-opacity="0.82"/>
  <path d="M687.77,816.83Q686.81,809.89 693.30,812.53L725.25,825.53Q731.74,828.17 726.21,832.47L698.98,853.64Q693.45,857.94 692.49,851.00Z" fill="#D4975C" fill-opacity="0.67"/>
  <path d="M779.35,851.10Q778.34,858.02 772.85,853.68L745.79,832.28Q740.30,827.94 746.80,825.36L778.86,812.62Q785.37,810.04 784.35,816.96Z" fill="#D4975C" fill-opacity="0.83"/>
  <path d="M838.73,810.83Q844.58,806.99 844.99,813.98L846.97,848.42Q847.37,855.40 841.12,852.26L810.30,836.75Q804.05,833.61 809.90,829.77Z" fill="#D4975C" fill-opacity="0.75"/>
  <path d="M879.48,817.15Q878.38,810.24 884.92,812.75L917.12,825.12Q923.66,827.63 918.22,832.03L891.40,853.73Q885.96,858.14 884.87,851.22Z" fill="#D69A5E" fill-opacity="0.84"/>
  <path d="M981.93,835.53Q986.60,840.75 979.75,842.18L945.98,849.23Q939.12,850.66 941.31,844.01L952.09,811.24Q954.28,804.59 958.94,809.81Z" fill="#D89E62" fill-opacity="0.62"/>
  <path d="M1041.91,845.14Q1043.68,851.91 1036.93,850.06L1003.66,840.94Q996.91,839.09 1001.89,834.17L1026.43,809.92Q1031.40,805.00 1033.18,811.77Z" fill="#D69A5E" fill-opacity="0.61"/>
  <path d="M1095.48,811.08Q1101.46,807.45 1101.62,814.45L1102.38,848.94Q1102.53,855.93 1096.39,852.57L1066.14,835.98Q1060.01,832.62 1065.99,828.99Z" fill="#D69A5E" fill-opacity="0.61"/>
  <path d="M1160.08,852.69Q1157.94,859.36 1153.24,854.18L1130.04,828.65Q1125.33,823.47 1132.17,821.98L1165.88,814.66Q1172.72,813.17 1170.59,819.84Z" fill="#D09058" fill-opacity="0.65"/>
  <path d="M1231.97,847.45Q1232.80,854.40 1226.37,851.65L1194.64,838.10Q1188.20,835.35 1193.80,831.15L1221.39,810.45Q1226.99,806.25 1227.83,813.20Z" fill="#D69A5E" fill-opacity="0.55"/>
  <path d="M1291.09,812.75Q1297.63,810.25 1296.53,817.16L1291.12,851.23Q1290.02,858.14 1284.58,853.74L1257.78,832.01Q1252.35,827.61 1258.88,825.10Z" fill="#D09058" fill-opacity="0.85"/>
  <path d="M1321.88,829.90Q1316.89,825.00 1323.63,823.13L1356.87,813.89Q1363.62,812.02 1361.87,818.80L1353.24,852.20Q1351.49,858.98 1346.50,854.07Z" fill="#D09058" fill-opacity="0.58"/>
  <path d="M1420.05,813.34Q1426.71,811.17 1425.26,818.02L1418.14,851.77Q1416.69,858.62 1411.48,853.94L1385.81,830.89Q1380.60,826.22 1387.26,824.04Z" fill="#D09058" fill-opacity="0.55"/>
  <path d="M1474.06,809.88Q1478.96,804.88 1480.84,811.62L1490.12,844.85Q1492.01,851.59 1485.23,849.85L1451.81,841.27Q1445.03,839.53 1449.93,834.53Z" fill="#D09058" fill-opacity="0.73"/>
  <path d="M-9.82,894.69Q-4.14,898.77 -10.52,901.65L-41.95,915.86Q-48.33,918.74 -47.64,911.78L-44.22,877.45Q-43.53,870.48 -37.84,874.57Z" fill="#D89E62" fill-opacity="0.57"/>
  <path d="M27.36,874.27Q30.54,868.04 34.35,873.91L53.13,902.85Q56.94,908.72 49.95,909.08L15.50,910.88Q8.51,911.24 11.69,905.01Z" fill="#D69A5E" fill-opacity="0.58"/>
  <path d="M117.57,901.31Q121.80,906.89 114.85,907.75L80.62,912.03Q73.67,912.90 76.40,906.45L89.81,874.67Q92.53,868.22 96.75,873.80Z" fill="#CC8C52" fill-opacity="0.78"/>
  <path d="M137.85,897.67Q132.10,893.67 138.43,890.69L169.63,875.98Q175.97,873.00 175.38,879.97L172.52,914.35Q171.94,921.33 166.19,917.34Z" fill="#D4975C" fill-opacity="0.69"/>
  <path d="M231.34,916.97Q228.98,923.55 224.46,918.21L202.17,891.88Q197.65,886.53 204.54,885.29L238.48,879.16Q245.37,877.91 243.01,884.50Z" fill="#D69A5E" fill-opacity="0.56"/>
  <path d="M289.12,873.81Q293.80,868.61 295.97,875.26L306.65,908.07Q308.82,914.72 301.97,913.27L268.22,906.12Q261.38,904.67 266.06,899.47Z" fill="#D69A5E" fill-opacity="0.64"/>
  <path d="M335.63,880.98Q334.61,874.06 341.12,876.63L373.19,889.33Q379.70,891.91 374.21,896.26L347.18,917.69Q341.69,922.03 340.67,915.11Z" fill="#D4975C" fill-opacity="0.57"/>
  <path d="M394.71,902.36Q388.24,899.69 393.79,895.42L421.14,874.39Q426.69,870.12 427.61,877.06L432.15,911.26Q433.07,918.19 426.60,915.52Z" fill="#CC8C52" fill-opacity="0.68"/>
  <path d="M499.28,907.04Q501.80,913.57 494.88,912.49L460.80,907.17Q453.88,906.10 458.28,900.65L479.92,873.78Q484.32,868.33 486.84,874.86Z" fill="#CC8C52" fill-opacity="0.57"/>
  <path d="M564.87,903.61Q568.47,909.61 561.47,909.72L526.98,910.27Q519.98,910.39 523.38,904.27L540.15,874.12Q543.55,868.00 547.15,874.01Z" fill="#D69A5E" fill-opacity="0.59"/>
  <path d="M625.89,909.17Q627.65,915.95 620.90,914.08L587.65,904.91Q580.90,903.04 585.89,898.13L610.46,873.92Q615.45,869.01 617.21,875.78Z" fill="#D69A5E" fill-opacity="0.74"/>
  <path d="M650.02,892.78Q645.28,887.62 652.11,886.10L685.78,878.58Q692.61,877.05 690.52,883.73L680.20,916.65Q678.10,923.33 673.37,918.17Z" fill="#D89E62" fill-opacity="0.66"/>
  <path d="M716.03,886.26Q713.08,879.92 720.05,880.53L754.42,883.58Q761.39,884.19 757.37,889.92L737.55,918.16Q733.53,923.89 730.58,917.54Z" fill="#D89E62" fill-opacity="0.69"/>
  <path d="M780.55,885.27Q777.92,878.78 784.85,879.75L819.02,884.52Q825.95,885.49 821.65,891.01L800.43,918.21Q796.13,923.73 793.50,917.24Z" fill="#D4975C" fill-opacity="0.79"/>
  <path d="M882.81,907.81Q885.07,914.44 878.20,913.08L844.36,906.39Q837.50,905.03 842.11,899.76L864.82,873.80Q869.43,868.53 871.69,875.16Z" fill="#D69A5E" fill-opacity="0.77"/>
  <path d="M936.20,916.65Q934.10,923.33 929.37,918.17L906.02,892.78Q901.28,887.62 908.11,886.10L941.78,878.58Q948.61,877.05 946.52,883.73Z" fill="#CC8C52" fill-opacity="0.82"/>
  <path d="M975.01,910.31Q968.01,910.43 971.40,904.31L988.11,874.13Q991.50,868.00 995.11,874.00L1012.89,903.56Q1016.50,909.56 1009.50,909.69Z" fill="#CC8C52" fill-opacity="0.67"/>
  <path d="M1049.73,874.69Q1052.42,868.23 1056.67,873.79L1077.59,901.22Q1081.84,906.79 1074.90,907.68L1040.68,912.09Q1033.74,912.98 1036.44,906.52Z" fill="#D89E62" fill-opacity="0.68"/>
  <path d="M1105.83,878.89Q1105.76,871.89 1111.86,875.33L1141.90,892.29Q1148.00,895.73 1141.97,899.28L1112.27,916.83Q1106.24,920.38 1106.17,913.39Z" fill="#D89E62" fill-opacity="0.84"/>
  <path d="M1172.29,877.12Q1173.17,870.18 1178.75,874.41L1206.20,895.30Q1211.78,899.54 1205.32,902.24L1173.51,915.58Q1167.05,918.29 1167.93,911.34Z" fill="#CC8C52" fill-opacity="0.57"/>
  <path d="M1255.73,875.17Q1261.76,871.62 1261.83,878.61L1262.17,913.11Q1262.24,920.11 1256.14,916.67L1226.10,899.72Q1220.00,896.27 1226.03,892.72Z" fill="#D4975C" fill-opacity="0.68"/>
  <path d="M1307.76,874.19Q1311.05,868.02 1314.75,873.96L1333.01,903.23Q1336.71,909.17 1329.71,909.41L1295.24,910.58Q1288.24,910.82 1291.53,904.64Z" fill="#D89E62" fill-opacity="0.79"/>
  <path d="M1354.21,891.67Q1349.74,886.29 1356.64,885.11L1390.64,879.29Q1397.54,878.11 1395.11,884.68L1383.15,917.03Q1380.72,923.60 1376.25,918.21Z" fill="#D69A5E" fill-opacity="0.84"/>
  <path d="M1418.37,890.95Q1414.08,885.42 1421.01,884.47L1455.19,879.79Q1462.13,878.84 1459.48,885.32L1446.44,917.26Q1443.80,923.74 1439.51,918.21Z" fill="#D4975C" fill-opacity="0.67"/>
  <path d="M-51.12,941.90Q-44.38,940.03 -46.13,946.81L-54.76,980.20Q-56.52,986.98 -61.51,982.08L-86.12,957.90Q-91.11,952.99 -84.36,951.12Z" fill="#CC8C52" fill-opacity="0.81"/>
  <path d="M-7.41,939.06Q-5.06,932.46 -0.52,937.79L21.84,964.05Q26.38,969.38 19.50,970.65L-14.43,976.89Q-21.32,978.15 -18.97,971.56Z" fill="#D89E62" fill-opacity="0.73"/>
  <path d="M53.73,979.70Q47.31,982.48 48.11,975.53L52.07,941.26Q52.88,934.30 58.50,938.48L86.19,959.04Q91.81,963.21 85.39,966.00Z" fill="#D69A5E" fill-opacity="0.70"/>
  <path d="M143.25,976.15Q143.78,983.13 137.47,980.10L106.39,965.13Q100.08,962.10 105.86,958.15L134.36,938.71Q140.14,934.77 140.67,941.75Z" fill="#CC8C52" fill-opacity="0.62"/>
  <path d="M211.26,971.07Q213.77,977.61 206.86,976.52L172.78,971.14Q165.87,970.05 170.27,964.61L191.96,937.78Q196.36,932.34 198.87,938.87Z" fill="#D69A5E" fill-opacity="0.66"/>
  <path d="M254.25,937.85Q258.22,932.09 261.22,938.41L276.06,969.55Q279.07,975.87 272.09,975.32L237.70,972.59Q230.72,972.04 234.69,966.27Z" fill="#D69A5E" fill-opacity="0.62"/>
  <path d="M301.71,972.61Q294.73,972.06 298.69,966.29L318.22,937.86Q322.19,932.09 325.20,938.40L340.07,969.53Q343.08,975.85 336.10,975.30Z" fill="#D69A5E" fill-opacity="0.84"/>
  <path d="M389.96,938.60Q395.67,934.55 396.33,941.52L399.55,975.86Q400.21,982.83 393.84,979.92L362.49,965.54Q356.12,962.62 361.83,958.57Z" fill="#D69A5E" fill-opacity="0.75"/>
  <path d="M426.22,955.62Q421.76,950.23 428.66,949.06L462.68,943.33Q469.58,942.16 467.14,948.72L455.10,981.05Q452.66,987.61 448.20,982.21Z" fill="#D69A5E" fill-opacity="0.83"/>
  <path d="M519.43,939.06Q525.41,935.42 525.58,942.42L526.42,976.90Q526.59,983.90 520.44,980.55L490.15,964.03Q484.01,960.68 489.98,957.03Z" fill="#D89E62" fill-opacity="0.56"/>
  <path d="M576.27,982.21Q571.92,987.70 569.34,981.19L556.63,949.12Q554.05,942.62 560.98,943.64L595.10,948.66Q602.03,949.68 597.68,955.17Z" fill="#D89E62" fill-opacity="0.83"/>
  <path d="M629.81,979.74Q623.40,982.55 624.17,975.59L628.00,941.30Q628.78,934.35 634.41,938.50L662.19,958.95Q667.83,963.11 661.41,965.91Z" fill="#D09058" fill-opacity="0.81"/>
  <path d="M682.52,954.32Q678.40,948.67 685.36,947.92L719.66,944.24Q726.62,943.49 723.78,949.89L709.82,981.44Q706.99,987.84 702.86,982.19Z" fill="#CC8C52" fill-opacity="0.57"/>
  <path d="M763.26,938.30Q766.41,932.05 770.25,937.90L789.17,966.75Q793.00,972.60 786.01,973.00L751.57,974.96Q744.58,975.35 747.73,969.10Z" fill="#D4975C" fill-opacity="0.58"/>
  <path d="M809.80,959.26Q804.51,954.67 811.13,952.39L843.74,941.14Q850.36,938.86 849.03,945.73L842.46,979.60Q841.13,986.47 835.84,981.88Z" fill="#CC8C52" fill-opacity="0.68"/>
  <path d="M887.09,980.35Q880.86,983.56 881.20,976.56L882.84,942.11Q883.17,935.11 889.06,938.90L918.08,957.55Q923.97,961.33 917.75,964.54Z" fill="#D89E62" fill-opacity="0.64"/>
  <path d="M953.24,981.16Q947.39,985.00 946.99,978.01L945.05,943.57Q944.66,936.58 950.91,939.73L981.71,955.27Q987.96,958.43 982.10,962.26Z" fill="#D69A5E" fill-opacity="0.73"/>
  <path d="M1037.96,942.72Q1044.81,941.27 1042.65,947.92L1031.98,980.73Q1029.82,987.39 1025.14,982.19L1002.05,956.55Q997.37,951.35 1004.22,949.89Z" fill="#D09058" fill-opacity="0.60"/>
  <path d="M1069.44,947.78Q1067.33,941.11 1074.17,942.62L1107.86,950.04Q1114.69,951.54 1109.97,956.71L1086.70,982.18Q1081.98,987.34 1079.86,980.67Z" fill="#D4975C" fill-opacity="0.63"/>
  <path d="M1137.49,943.17Q1137.29,936.18 1143.45,939.50L1173.82,955.85Q1179.99,959.17 1174.03,962.85L1144.68,980.98Q1138.73,984.65 1138.52,977.66Z" fill="#CC8C52" fill-opacity="0.73"/>
  <path d="M1198.97,974.27Q1191.97,974.38 1195.38,968.26L1212.16,938.12Q1215.56,932.00 1219.16,938.01L1236.87,967.61Q1240.46,973.62 1233.47,973.73Z" fill="#D09058" fill-opacity="0.78"/>
  <path d="M1298.86,971.74Q1301.14,978.36 1294.27,977.03L1260.40,970.46Q1253.53,969.13 1258.12,963.84L1280.74,937.80Q1285.33,932.51 1287.61,939.13Z" fill="#CC8C52" fill-opacity="0.58"/>
  <path d="M1331.29,941.78Q1331.80,934.80 1337.59,938.73L1366.13,958.10Q1371.93,962.03 1365.63,965.08L1334.58,980.12Q1328.28,983.17 1328.79,976.19Z" fill="#D69A5E" fill-opacity="0.70"/>
  <path d="M1394.05,942.71Q1394.07,935.71 1400.12,939.23L1429.95,956.56Q1436.00,960.08 1429.93,963.56L1400.00,980.73Q1393.93,984.21 1393.95,977.21Z" fill="#D4975C" fill-opacity="0.62"/>
  <path d="M1493.49,954.38Q1499.87,957.27 1494.17,961.34L1466.12,981.42Q1460.43,985.50 1459.75,978.53L1456.38,944.20Q1455.70,937.23 1462.08,940.12Z" fill="#D4975C" fill-opacity="0.55"/>
</svg>